<?xml version="1.0" encoding="UTF-8" standalone="no"?>
<svg
   width="1652.1416"
   height="1652.1416"
   version="1.1"
   id="svg49"
   xmlns="http://www.w3.org/2000/svg"
   xmlns:svg="http://www.w3.org/2000/svg">
  <defs
     id="defs49" />
  <path
     fill="none"
     stroke="#aaaaaa"
     stroke-width="4.8"
     stroke-miterlimit="0"
     d="M 134.87077,134.87077 H 1517.2708 m -1382.40003,0 V 1517.2708 m 0,-1036.80003 H 1517.2708 m -1036.80003,-345.6 V 1517.2708 m -345.6,-691.20003 H 1517.2708 m -691.20003,-691.2 V 1517.2708 m -691.2,-345.6 H 1517.2708 m -345.6,-1036.80003 V 1517.2708 m -1036.80003,0 H 1517.2708 m 0,-1382.40003 V 1517.2708"
     id="path1" />
  <path
     fill="none"
     stroke="#000000"
     stroke-width="6.72"
     stroke-miterlimit="0"
     d="m 347.99077,307.67077 h 264.96 m -28.33056,-28.68912 28.33056,28.68912 -28.33056,28.68912"
     id="path2" />
  <path
     d="m 443.18077,290.57072 v -4.02 q -3.02995,4.74 -8.90995,4.74 -3.80995,0 -7.02,-2.1 -3.18,-2.1 -4.95005,-5.84995 -1.74,-3.78 -1.74,-8.66995 0,-4.77005 1.59005,-8.64 1.58995,-3.9 4.77005,-5.97005 3.18,-2.06995 7.10995,-2.06995 2.88,0 5.13005,1.22995 2.24995,1.2 3.66,3.14995 v -15.78 h 5.36995 v 43.98 z m -17.07,-15.9 q 0,6.12 2.58,9.14995 2.58,3.02996 6.09005,3.02996 3.54,0 6,-2.88 2.48995,-2.90996 2.48995,-8.84996 0,-6.54 -2.52,-9.6 -2.52,-3.06 -6.20995,-3.06 -3.6,0 -6.03005,2.94 -2.4,2.94 -2.4,9.27005 z m 52.38001,5.64 5.58,0.69 q -1.32,4.88995 -4.89,7.58995 -3.57,2.7 -9.12,2.7 -6.99005,0 -11.10001,-4.29004 -4.08,-4.32 -4.08,-12.09 0,-8.04 4.14,-12.48 4.14,-4.44 10.74001,-4.44 6.39,0 10.44,4.34995 4.05,4.34995 4.05,12.24 0,0.48 -0.03,1.44 h -23.76001 q 0.3,5.24995 2.97005,8.04 2.67005,2.78995 6.66,2.78995 2.97,0 5.07,-1.56 2.1,-1.56 3.32996,-4.97981 z m -17.73001,-8.72995 h 17.79001 q -0.36,-4.02 -2.04,-6.03005 -2.58,-3.12 -6.69,-3.12 -3.72,0 -6.27005,2.48995 -2.52,2.49005 -2.78996,6.6601 z"
     id="text2"
     style="font-size:0.064px;font-family:Arial;stroke-width:960"
     aria-label="de" />
  <path
     fill="none"
     stroke="#000000"
     stroke-width="6.72"
     stroke-miterlimit="0"
     d="m 307.67076,347.99077 2e-5,264.96 m 28.68912,-28.33056 -28.68912,28.33056 -28.68912,-28.33056"
     id="path3" />
  <path
     d="m 324.77081,417.59077 h 4.02 q -4.74,-3.02995 -4.74,-8.90995 0,-3.81005 2.1,-7.02 2.1,-3.18 5.84996,-4.95005 3.78,-1.74 8.66995,-1.74 4.77005,0 8.64,1.58995 3.9,1.58995 5.97005,4.77005 2.06995,3.18 2.06995,7.11005 0,2.88 -1.22995,5.12995 -1.2,2.25005 -3.14996,3.66 h 15.78 v 5.37004 l -43.98,10e-6 z m 15.9,-17.07 q -6.12,0 -9.14995,2.58 -3.02995,2.58 -3.02995,6.09005 0,3.54 2.88,6 2.90995,2.49004 8.84995,2.49004 6.54,0 9.6,-2.52 3.06,-2.52 3.06,-6.20995 0,-3.6 -2.94,-6.03005 -2.94,-2.4 -9.27005,-2.40009 z m -5.63999,52.38 -0.69,5.58 q -4.88996,-1.32 -7.58996,-4.89005 -2.7,-3.56995 -2.7,-9.12 0,-6.99005 4.29005,-11.1 4.32,-4.08 12.09,-4.08 8.04,0 12.48,4.14 4.44,4.14 4.44,10.74 0,6.38995 -4.34995,10.44 -4.34995,4.04995 -12.24,4.04995 -0.48,0 -1.44,-0.03 v -23.7599 q -5.24995,0.3 -8.04,2.96995 -2.78995,2.66995 -2.78995,6.66 0,2.96995 1.56,5.07005 1.56,2.1 4.97981,3.33 z m 8.73,-17.73 v 17.79 q 4.02,-0.36 6.03004,-2.04 3.12,-2.58 3.12,-6.68995 0,-3.72 -2.48995,-6.27005 -2.49005,-2.52 -6.66009,-2.79 z m -18.99,30.09 h 31.86 v 4.83005 h -4.47005 q 2.34,1.5 3.75005,3.99 1.44,2.49 1.44,5.67 0,3.54 -1.46995,5.79 -1.46996,2.28 -4.10996,3.21 5.58,3.78 5.58001,9.84 0,4.74 -2.64,7.28995 -2.61005,2.55005 -8.07005,2.55005 h -21.87 v -5.37005 h 20.06995 q 3.24,0 4.65005,-0.54 1.44,-0.51 2.30995,-1.88995 0.87,-1.38 0.87,-3.24 0,-3.36 -2.24995,-5.58 -2.22005,-2.22005 -7.14005,-2.22005 h -18.51 v -5.4 h 20.7 q 3.6,0 5.4,-1.32 1.8,-1.32 1.8,-4.32 0,-2.28 -1.2,-4.23 -1.2,-1.92 -3.50995,-2.79 -2.30996,-0.87 -6.66,-0.87 h -16.53 z"
     id="text3"
     style="font-size:0.064px;font-family:Arial;stroke-width:960"
     aria-label="dem" />
  <path
     fill="none"
     stroke="#000000"
     stroke-width="6.72"
     stroke-miterlimit="0"
     d="m 307.67076,267.35077 2e-5,-264.9599997 M 278.98166,30.721329 307.67078,2.3907703 336.3599,30.721332"
     id="path4" />
  <path
     d="m 290.57072,197.75077 h -4.02 q 4.74,3.02995 4.74,8.90995 0,3.81005 -2.1,7.02 -2.1,3.18 -5.84995,4.95005 -3.78,1.74 -8.66996,1.74 -4.77004,0 -8.64,-1.58995 -3.9,-1.58996 -5.97004,-4.77005 -2.06996,-3.18 -2.06996,-7.11005 0,-2.88 1.22996,-5.12995 1.2,-2.25005 3.14995,-3.66 h -15.78 v -5.37005 h 43.98 z m -15.9,17.07 q 6.12,0 9.14995,-2.58 3.02995,-2.58 3.02995,-6.09005 0,-3.54 -2.88,-6 -2.90995,-2.49005 -8.84995,-2.49005 -6.54,0 -9.6,2.52 -3.06,2.52 -3.06,6.20995 0,3.6 2.94,6.03005 2.94,2.4 9.27005,2.4001 z m -0.03,-28.56 q -8.84995,0 -13.11,-4.92 -3.54,-4.10995 -3.54,-10.02 0,-6.57005 4.32,-10.74 4.29005,-4.17005 11.88,-4.17005 6.14995,0 9.69,1.86 3.50995,1.82995 5.46,5.36995 1.95005,3.51005 1.95005,7.68 0,6.68996 -4.29005,10.83 -4.29005,4.10995 -12.36,4.1101 z m 0,-5.55005 q 6.12,0 9.18,-2.66995 3.02995,-2.66995 3.02995,-6.72 0,-4.02 -3.06,-6.69005 -3.06,-2.66995 -9.33005,-2.66995 -5.91004,0 -8.94,2.7 -3.06,2.67005 -3.06,6.66 0,4.04995 3.02996,6.72 3.02995,2.66995 9.15014,2.66995 z m 15.93,-30.63 h -31.86 v -4.83005 h 4.47005 q -2.34,-1.5 -3.75005,-3.99 -1.44,-2.49 -1.44,-5.67 0,-3.54 1.46995,-5.79 1.46996,-2.28 4.10996,-3.21 -5.58,-3.78 -5.58,-9.84 0,-4.74 2.64,-7.28995 2.61005,-2.55005 8.07005,-2.55005 h 21.87 v 5.37015 h -20.06996 q -3.24,0 -4.65004,0.54 -1.44,0.51 -2.30996,1.88995 -0.87,1.38 -0.87,3.24 0,3.36 2.24995,5.58 2.22005,2.22 7.14005,2.22 h 18.51 v 5.4 h -20.7 q -3.6,0 -5.4,1.32 -1.8,1.32 -1.8,4.32 0,2.28 1.2,4.23 1.2,1.92 3.50995,2.79 2.30996,0.87 6.66,0.87 h 16.53 z"
     id="text4"
     style="font-size:0.064px;font-family:Arial;stroke-width:960"
     aria-label="dom" />
  <path
     d="m 154.75418,161.48776 c 1.40035,-4.44382 2.67877,-8.82711 3.95718,-13.45379 h 0.2435 c 1.21772,4.62645 2.55683,9.00975 3.95718,13.45379 l 1.887,6.08766 H 152.8672 Z m -12.17538,22.34177 h 5.17434 l 3.83524,-12.17538 h 14.48866 l 3.77455,12.17538 h 5.35697 l -13.45379,-39.9352 h -5.7224 z m 40.48309,0 h 26.35964 v -4.13981 h -10.1664 v -34.69977 h -3.7133 c -2.49613,1.3391 -5.41822,2.25225 -9.98381,2.86139 v 3.22666 h 8.7054 v 28.61211 H 183.0621 Z"
     id="text5"
     style="font-size:0.109333px;font-family:'Hasklug Nerd Font Mono';stroke-width:556.8"
     aria-label="A1" />
  <path
     fill="none"
     stroke="#000000"
     stroke-width="6.72"
     stroke-miterlimit="0"
     d="m 347.99077,653.27077 h 264.96 m -28.33056,-28.68912 28.33056,28.68912 -28.33056,28.68912"
     id="path5" />
  <path
     d="m 332.31578,636.17072 -12.12,-31.86 h 5.70048 l 6.84,19.08 q 1.10976,3.09005 2.04,6.42 0.72,-2.52 2.01024,-6.06 l 7.08,-19.44 h 5.54976 l -12.06,31.86 z m 42.66,-3.92995 q -3,2.54995 -5.78976,3.6 -2.76,1.05005 -5.93952,1.05005 -5.25024,0 -8.06976,-2.55005 -2.82048,-2.58 -2.82048,-6.56995 0,-2.34 1.05024,-4.26 1.08,-1.94995 2.78976,-3.12 1.74048,-1.17005 3.89952,-1.77005 1.58976,-0.42 4.8,-0.81 6.53952,-0.78 9.62995,-1.86 0.03,-1.10995 0.03,-1.40995 0,-3.3 -1.53024,-4.65005 -2.06976,-1.82995 -6.14976,-1.82995 -3.81024,0 -5.64,1.34995 -1.8,1.32 -2.66976,4.71005 l -5.28,-0.72 q 0.72,-3.38995 2.37024,-5.46 1.65024,-2.1 4.77024,-3.20995 3.12,-1.14 7.22976,-1.14 4.08,0 6.62976,0.96 2.54976,0.96 3.74976,2.42995 1.2,1.44 1.68,3.66 0.27,1.38 0.27,4.98 v 7.2 q 0,7.52995 0.33,9.54 0.36,1.98 1.38048,3.80995 h -5.64 q -0.84,-1.68 -1.08043,-3.93 z m -0.45,-12.06 q -2.93952,1.2 -8.82048,2.04 -3.33024,0.48 -4.70976,1.08 -1.37952,0.6 -2.13024,1.77005 -0.75,1.14 -0.75,2.54995 0,2.16 1.62048,3.6 1.65024,1.44 4.8,1.44 3.12,0 5.54976,-1.35005 2.42976,-1.38 3.57024,-3.75005 0.87,-1.82995 0.87,-5.4 z m 34.5,15.99 v -4.02 q -3.02996,4.74 -8.90996,4.74 -3.81004,0 -7.02,-2.1 -3.18,-2.1 -4.95004,-5.84995 -1.74,-3.78 -1.74,-8.66995 0,-4.77005 1.59004,-8.64 1.58996,-3.9 4.76996,-5.97005 3.18,-2.06995 7.11004,-2.06995 2.88,0 5.12996,1.22995 2.25004,1.2 3.66,3.14995 v -15.78 h 5.37004 v 43.98 z m -17.07,-15.9 q 0,6.12 2.58,9.14995 2.58,3.02995 6.08995,3.02995 3.54,0 6,-2.88 2.48995,-2.90995 2.48995,-8.84995 0,-6.54 -2.52,-9.6 -2.52,-3.06 -6.20995,-3.06 -3.6,0 -6.03005,2.94 -2.4,2.94 -2.3999,9.27005 z m 45.47999,6.38995 5.34,-0.84 q 0.45,3.20995 2.48995,4.92 2.07005,1.71005 5.76,1.71005 3.72,0 5.52,-1.5 1.8,-1.52995 1.8,-3.56995 0,-1.82995 -1.59005,-2.88 -1.11005,-0.72 -5.52,-1.83005 -5.94,-1.5 -8.25005,-2.58 -2.28,-1.11005 -3.48,-3.02995 -1.16995,-1.95005 -1.16995,-4.29005 0,-2.13005 0.96,-3.92995 0.98995,-1.83005 2.66995,-3.02995 1.26,-0.93 3.42,-1.56 2.19005,-0.66 4.68,-0.66 3.75005,0 6.57005,1.08 2.84995,1.08 4.2,2.94 1.35005,1.83004 1.86,4.92 l -5.28,0.72 q -0.36,-2.46 -2.1,-3.84 -1.70995,-1.38 -4.86,-1.38 -3.72,0 -5.31005,1.23004 -1.58995,1.22996 -1.58995,2.88 0,1.05005 0.66,1.88996 0.66,0.87 2.06995,1.44 0.81,0.3 4.77005,1.38 5.72995,1.52995 7.98,2.52 2.28,0.96 3.57005,2.82 1.28995,1.86 1.28995,4.62 0,2.7 -1.58995,5.1 -1.56,2.36995 -4.53005,3.68995 -2.96995,1.29005 -6.72,1.29005 -6.21005,0 -9.48,-2.58 -3.24,-2.58 -4.1399,-7.65015 z m 53.67,5.58 q -3,2.54995 -5.79,3.6 -2.76,1.05005 -5.94,1.05005 -5.25,0 -8.07,-2.55005 -2.82,-2.58 -2.82,-6.56995 0,-2.34 1.04995,-4.26 1.08,-1.94995 2.79,-3.12 1.74,-1.17005 3.9,-1.77005 1.59,-0.42 4.8,-0.81 6.54,-0.78 9.63,-1.86 0.03,-1.10995 0.03,-1.40995 0,-3.3 -1.53,-4.65005 -2.07,-1.82995 -6.15,-1.82995 -3.81,0 -5.64,1.34995 -1.8,1.32 -2.67,4.71005 l -5.28,-0.72 q 0.72,-3.38995 2.37,-5.46 1.65,-2.1 4.77,-3.20995 3.12,-1.14 7.23,-1.14 4.08,0 6.63,0.96 2.55005,0.96 3.75005,2.42995 1.2,1.44 1.68,3.66 0.27,1.38 0.27,4.98 v 7.2 q 0,7.52995 0.33,9.54 0.36,1.98 1.38,3.80995 h -5.64 q -0.84,-1.68 -1.08,-3.93 z m -0.45,-12.06 q -2.94,1.2 -8.82,2.04 -3.33,0.48 -4.71,1.08 -1.38,0.6 -2.13,1.77005 -0.75,1.14 -0.75,2.54995 0,2.16 1.62,3.6 1.65,1.44 4.8,1.44 3.12,0 5.55,-1.35005 2.43,-1.38 3.57,-3.75004 0.87,-1.82996 0.87,-5.4 z m 51.56999,15.99 v -4.02 q -3.02996,4.74 -8.91005,4.74 -3.80995,0 -7.02,-2.1 -3.18,-2.1 -4.95005,-5.84995 -1.74,-3.78 -1.74,-8.66995 0,-4.77005 1.58995,-8.64 1.58995,-3.9 4.77005,-5.97005 3.18,-2.06995 7.10995,-2.06995 2.88,0 5.13005,1.22995 2.24995,1.2 3.66,3.14995 v -15.78 h 5.36995 v 43.98 z m -17.07,-15.9 q 0,6.12 2.58,9.14995 2.58,3.02996 6.09004,3.02996 3.54,0 6,-2.88 2.49005,-2.90996 2.49005,-8.84996 0,-6.54 -2.52,-9.6 -2.52,-3.06 -6.20995,-3.06 -3.6,0 -6.03005,2.94 -2.4,2.94 -2.40009,9.27005 z m 51.45,15.9 v -4.68 q -3.72,5.4 -10.11,5.4 -2.82,0 -5.28,-1.08 -2.42996,-1.08 -3.62996,-2.7 -1.17004,-1.65005 -1.65004,-4.02 -0.33,-1.59005 -0.33,-5.04 v -19.74 h 5.4 v 17.67 q 0,4.23005 0.33,5.7 0.51,2.13005 2.16,3.36 1.64995,1.2 4.08,1.2 2.42995,0 4.56,-1.23005 2.13004,-1.26 3,-3.38995 0.9,-2.16 0.9,-6.24 v -17.07 h 5.4 v 31.86 z"
     id="text6"
     style="font-size:0.064px;font-family:Arial;stroke-width:960"
     aria-label="vad sa du" />
  <path
     fill="none"
     stroke="#000000"
     stroke-width="6.72"
     stroke-miterlimit="0"
     d="m 307.67076,693.59077 2e-5,264.96 m 28.68912,-28.33056 -28.68912,28.33056 -28.68912,-28.33056"
     id="path6" />
  <path
     d="m 324.77082,778.68576 31.85999,-12.12 1e-5,5.7 -19.08,6.84 q -3.09005,1.10996 -6.42,2.04 2.52,0.72 6.06,2.01005 l 19.44,7.08 v 5.55005 l -31.86,-12.06 z m 3.92995,42.66001 q -2.54995,-3 -3.6,-5.79 -1.05005,-2.76 -1.05005,-5.94 0,-5.25004 2.55005,-8.06995 2.58,-2.82 6.56995,-2.82 2.34,0 4.26,1.04995 1.94995,1.08 3.12,2.79005 1.17005,1.74 1.77005,3.9 0.42,1.59005 0.81,4.8 0.78,6.54 1.86,9.63 1.10995,0.03 1.40995,0.03 3.3,0 4.65005,-1.53 1.82995,-2.07 1.82995,-6.15 0,-3.80995 -1.34995,-5.64 -1.32,-1.8 -4.71005,-2.66995 l 0.72,-5.28 q 3.38995,0.72 5.46,2.37005 2.1,1.64995 3.20995,4.76995 1.14,3.12 1.14,7.23005 0,4.08 -0.96,6.63 -0.96,2.55 -2.42995,3.75 -1.44,1.19999 -3.66,1.67999 -1.38,0.27 -4.98,0.27 h -7.2 q -7.52995,0 -9.54,0.33001 -1.98,0.36 -3.80995,1.38 v -5.64 q 1.68,-0.84 3.93,-1.08015 z m 12.06,-0.45 q -1.2,-2.94 -2.04,-8.82 -0.48,-3.32995 -1.08,-4.71004 -0.6,-1.38 -1.77005,-2.12996 -1.14,-0.75 -2.54995,-0.75 -2.16,0 -3.6,1.62 -1.44,1.64996 -1.44,4.8 0,3.12 1.35005,5.55005 1.38,2.43 3.75005,3.57 1.82995,0.87 5.4,0.87 z"
     id="text7"
     style="font-size:0.064px;font-family:Arial;stroke-width:960"
     aria-label="va" />
  <path
     d="m 154.75418,507.08776 c 1.40035,-4.44382 2.67877,-8.82711 3.95718,-13.45379 h 0.2435 c 1.21772,4.62645 2.55683,9.00975 3.95718,13.45379 l 1.887,6.08766 H 152.8672 Z m -12.17538,22.34177 h 5.17434 l 3.83524,-12.17538 h 14.48866 l 3.77455,12.17538 h 5.35697 l -13.45379,-39.9352 h -5.7224 z m 39.02205,0 h 27.3337 v -4.32244 h -12.78413 c -2.3135,0 -4.80908,0.18263 -7.24435,0.36526 10.59256,-9.61855 17.89777,-16.86285 17.89777,-24.16807 0,-6.8791 -4.87033,-11.44486 -12.66235,-11.44486 -5.47891,0 -9.31415,2.3742 -12.78413,5.90504 l 2.8614,2.86139 c 2.49613,-2.61752 5.66154,-4.6877 9.31415,-4.6877 5.7224,0 8.46185,3.16541 8.46185,7.60962 0,6.45292 -7.24435,13.27116 -20.39374,24.89859 z"
     id="text8"
     style="font-size:0.109333px;font-family:'Hasklug Nerd Font Mono';stroke-width:556.8"
     aria-label="A2" />
  <path
     fill="none"
     stroke="#000000"
     stroke-width="6.72"
     stroke-miterlimit="0"
     d="m 347.99077,998.87077 h 264.96 m -28.33056,-28.68912 28.33056,28.68912 -28.33056,28.68913"
     id="path8" />
  <path
     d="m 415.25077,972.26072 5.34,-0.84 q 0.45,3.20995 2.48995,4.92 2.06995,1.71005 5.76,1.71005 3.72,0 5.52,-1.5 1.8,-1.52995 1.8,-3.56995 0,-1.82995 -1.58995,-2.88 -1.10995,-0.72 -5.52,-1.83005 -5.94,-1.5 -8.25005,-2.58 -2.28,-1.11005 -3.48,-3.02995 -1.16995,-1.9501 -1.16995,-4.2901 0,-2.13005 0.96,-3.92995 0.98995,-1.83005 2.66995,-3.02995 1.26,-0.93 3.42,-1.56 2.18995,-0.66 4.68,-0.66 3.75005,0 6.56995,1.08 2.84996,1.08 4.2,2.94 1.34996,1.83005 1.86,4.92 l -5.28,0.72 q -0.36,-2.46 -2.1,-3.84 -1.70995,-1.38 -4.86,-1.38 -3.72,0 -5.31004,1.23005 -1.58996,1.22995 -1.58996,2.88 0,1.05004 0.66,1.88995 0.66,0.87 2.06996,1.44 0.81,0.3 4.77004,1.38 5.73005,1.52995 7.98,2.52 2.28,0.96 3.56996,2.82 1.28995,1.86 1.28995,4.62 0,2.7 -1.58995,5.1 -1.56,2.36995 -4.53005,3.68995 -2.96995,1.29005 -6.72,1.29005 -6.21005,0 -9.48,-2.58 -3.24,-2.58 -4.13981,-7.6501 z m 32.91,-28.26 v -6.21005 h 5.4 v 6.21005 z m 0,37.77 v -31.86 h 5.4 v 31.86 z m 12.63,2.64 5.25005,0.78 q 0.33,2.43005 1.82995,3.54 2.00995,1.5 5.49,1.5 3.75,0 5.79,-1.5 2.04,-1.5 2.76,-4.2 0.42,-1.64995 0.39,-6.92995 -3.54,4.17005 -8.82,4.17005 -6.57,0 -10.17,-4.74 -3.6,-4.74 -3.6,-11.37 0,-4.56 1.64995,-8.4 1.65005,-3.86995 4.77005,-5.96995 3.14995,-2.1 7.38,-2.1 5.64,0 9.3,4.56 v -3.84 h 4.98 v 27.54 q 0,7.44 -1.53,10.53 -1.5,3.12 -4.8,4.92 -3.27,1.8 -8.07,1.8 -5.7,0 -9.21,-2.58 -3.50995,-2.55015 -3.39,-7.71015 z m 4.47005,-19.14 q 0,6.26995 2.49005,9.14995 2.48995,2.88 6.24,2.88 3.72,0 6.24,-2.84995 2.52,-2.88 2.52,-9 0,-5.85005 -2.61,-8.82 -2.58,-2.96995 -6.24,-2.96995 -3.6,0 -6.12,2.94 -2.52,2.90995 -2.52005,8.66995 z"
     id="text9"
     style="font-size:0.064px;font-family:Arial;stroke-width:960"
     aria-label="sig" />
  <path
     fill="none"
     stroke="#000000"
     stroke-width="6.72"
     stroke-miterlimit="0"
     d="m 307.67076,1039.1908 2e-5,264.96 m 28.68912,-28.3306 -28.68912,28.3306 -28.68912,-28.3306"
     id="path9" />
  <path
     d="m 334.28081,1096.1908 0.84,5.34 q -3.20995,0.45 -4.92,2.49 -1.71004,2.07 -1.71004,5.76 0,3.72 1.5,5.52 1.52995,1.8 3.56995,1.8 1.82995,0 2.88,-1.59 0.72,-1.11 1.83005,-5.52 1.5,-5.94 2.58,-8.25 1.11004,-2.28 3.02995,-3.48 1.95005,-1.17 4.29005,-1.17 2.13004,0 3.92995,0.96 1.83005,0.99 3.02995,2.6699 0.93,1.26 1.56,3.42 0.66,2.19 0.66,4.68 0,3.7501 -1.08,6.5701 -1.08,2.8499 -2.94,4.2 -1.83005,1.3499 -4.92,1.86 l -0.72,-5.28 q 2.46,-0.36 3.84,-2.1 1.38,-1.7101 1.38,-4.86 0,-3.72 -1.23005,-5.3101 -1.22995,-1.5899 -2.88,-1.5899 -1.05005,0 -1.88995,0.66 -0.87,0.66 -1.44,2.0699 -0.3,0.81 -1.38,4.7701 -1.52995,5.7299 -2.52,7.98 -0.96,2.28 -2.82,3.5699 -1.86,1.2901 -4.62,1.2901 -2.7,0 -5.1,-1.5901 -2.36995,-1.56 -3.68995,-4.53 -1.29005,-2.97 -1.29005,-6.72 0,-6.2101 2.58,-9.48 2.58,-3.24 7.65014,-4.1399 z m -5.57999,53.67 q -2.54996,-3 -3.6,-5.7901 -1.05005,-2.76 -1.05005,-5.94 0,-5.2499 2.55005,-8.0699 2.58,-2.82 6.56995,-2.82 2.34,0 4.26,1.05 1.94995,1.08 3.12,2.79 1.17005,1.74 1.77005,3.9 0.42,1.59 0.81,4.8 0.78,6.54 1.86,9.63 1.10995,0.03 1.40995,0.03 3.3,0 4.65005,-1.5301 1.82995,-2.0699 1.82995,-6.1499 0,-3.8101 -1.34995,-5.64 -1.32,-1.8 -4.71005,-2.67 l 0.72,-5.28 q 3.38995,0.72 5.46,2.37 2.1,1.6499 3.20995,4.77 1.14,3.12 1.14,7.23 0,4.08 -0.96,6.6299 -0.96,2.55 -2.42995,3.7501 -1.44,1.2 -3.66,1.68 -1.38,0.27 -4.98,0.27 h -7.2 q -7.52995,0 -9.54,0.33 -1.98,0.36 -3.80995,1.38 v -5.64 q 1.68,-0.84 3.93,-1.08 z m 12.06,-0.45 q -1.2,-2.94 -2.04,-8.82 -0.48,-3.33 -1.08,-4.7101 -0.6,-1.38 -1.77005,-2.1299 -1.14,-0.75 -2.54995,-0.75 -2.16,0 -3.6,1.62 -1.44,1.65 -1.44,4.8 0,3.12 1.35004,5.5499 1.38,2.43 3.75005,3.57 1.82995,0.87 5.4,0.87 z m 22.11,-15.9 h 6.15004 v 5.64 h -6.15004 z m 0,11.19 h 6.15004 v 5.64 h -6.15004 z m -40.74,17.55 -0.78,5.25 q -2.43005,0.33 -3.54,1.83 -1.5,2.01 -1.5,5.49 0,3.75 1.5,5.79 1.5,2.04 4.2,2.76 1.64995,0.42 6.92995,0.39 -4.17005,-3.54 -4.17005,-8.82 0,-6.57 4.74,-10.17 4.74,-3.6 11.37,-3.6 4.56,0 8.4,1.65 3.86995,1.65 5.96995,4.77 2.1,3.15 2.1,7.38 0,5.64 -4.55999,9.3 h 3.84 v 4.98 h -27.54 q -7.44,0 -10.53,-1.53 -3.12,-1.5 -4.92001,-4.8 -1.8,-3.27 -1.8,-8.07 0,-5.7 2.58,-9.21 2.55,-3.51 7.71015,-3.39 z m 19.14,4.47 q -6.26995,0 -9.14995,2.49 -2.88,2.49 -2.88,6.24 0,3.72 2.84995,6.24 2.88,2.52 9,2.52 5.85005,0 8.82,-2.61 2.96995,-2.58 2.96995,-6.24 0,-3.6 -2.94,-6.12 -2.90995,-2.52 -8.66995,-2.52 z"
     id="text10"
     style="font-size:0.064px;font-family:Arial;stroke-width:960"
     aria-label="säg" />
  <path
     fill="none"
     stroke="#000000"
     stroke-width="6.72"
     stroke-miterlimit="0"
     d="m 267.35077,998.87078 -264.9599997,-2e-5 M 30.721328,1027.5599 2.3907703,998.87076 30.721333,970.18164"
     id="path10" />
  <path
     d="m 200.09077,1025.4808 -5.34,0.84 q -0.45,-3.2099 -2.48995,-4.92 -2.06996,-1.71 -5.76,-1.71 -3.72,0 -5.52,1.5 -1.8,1.5299 -1.8,3.5699 0,1.83 1.58995,2.88 1.10995,0.72 5.52,1.8301 5.94,1.5 8.25005,2.58 2.28,1.11 3.48,3.0299 1.16995,1.9501 1.16995,4.2901 0,2.1301 -0.96,3.93 -0.98996,1.83 -2.66996,3.0299 -1.26,0.93 -3.42,1.56 -2.18995,0.66 -4.68,0.66 -3.75004,0 -6.56995,-1.08 -2.84995,-1.08 -4.2,-2.94 -1.34995,-1.83 -1.86,-4.92 l 5.28,-0.72 q 0.36,2.46 2.1,3.84 1.70995,1.38 4.86,1.38 3.72,0 5.31005,-1.23 1.58995,-1.23 1.58995,-2.88 0,-1.0501 -0.66,-1.89 -0.66,-0.87 -2.06995,-1.44 -0.81,-0.3 -4.77005,-1.38 -5.73004,-1.5299 -7.98,-2.52 -2.28,-0.96 -3.56995,-2.82 -1.28995,-1.86 -1.28995,-4.62 0,-2.7 1.58995,-5.1 1.56,-2.3699 4.53005,-3.6899 2.96995,-1.2901 6.72,-1.2901 6.21005,0 9.48,2.58 3.24,2.58 4.13981,7.6501 z m -54.69,0.75 -5.58,-0.69 q 1.32,-4.8899 4.89,-7.5899 3.56995,-2.7 9.12,-2.7 6.98995,0 11.1,4.29 4.08,4.32 4.08,12.09 0,8.04 -4.14,12.48 -4.14,4.44 -10.74,4.44 -6.39005,0 -10.44,-4.3499 -4.05,-4.35 -4.05,-12.24 0,-0.48 0.03,-1.44 h 23.76 q -0.3,-5.25 -2.96995,-8.04 -2.66996,-2.79 -6.66,-2.79 -2.96996,0 -5.06996,1.56 -2.1,1.56 -3.33009,4.9798 z m 17.73,8.73 h -17.79 q 0.36,4.02 2.04,6.0301 2.58,3.12 6.68995,3.12 3.72,0 6.26995,-2.49 2.52,-2.49 2.7901,-6.6601 z m -30.06,18.72 -1e-5,6.2701 h -5.4 l 1e-5,-6.2701 z m 6.84,-50.07 -1.02,4.59 q -1.62,-0.42 -2.55,-0.42 -1.65,0 -2.46,1.11 -0.81,1.08 -0.81,5.46 v 33.48 h -5.4 v -33.6 q 0,-5.88 1.53,-8.19 1.95,-3 6.48,-3 2.19,0 4.23,0.57 z"
     id="text11"
     style="font-size:0.064px;font-family:Arial;stroke-width:960"
     aria-label="sej" />
  <path
     d="m 154.75418,852.68776 c 1.40035,-4.44382 2.67877,-8.82711 3.95718,-13.45379 h 0.2435 c 1.21772,4.62645 2.55683,9.00975 3.95718,13.45379 l 1.887,6.08766 H 152.8672 Z m -12.17538,22.34177 h 5.17434 l 3.83524,-12.17538 h 14.48866 l 3.77455,12.17538 h 5.35697 l -13.45379,-39.9352 h -5.7224 z m 52.04967,0.73052 c 7.73133,0 14.06254,-4.2005 14.06254,-11.07959 0,-5.35698 -4.44382,-8.76626 -9.61856,-9.86205 v -0.2435 c 4.80909,-1.58298 8.27923,-4.56576 8.27923,-9.25329 0,-6.2703 -5.5396,-9.86204 -12.84499,-9.86204 -4.99171,0 -9.19237,2.06962 -12.41886,4.87032 l 2.67876,3.16541 c 2.55683,-2.3135 5.90503,-3.95717 9.55764,-3.95717 4.74839,0 7.91397,2.37419 7.91397,6.14857 0,4.07856 -3.53067,7.24436 -12.72327,7.24436 v 3.83524 c 10.2273,0 14.1234,3.10471 14.1234,7.73133 0,4.32244 -4.01787,7.12259 -9.31416,7.12259 -4.99171,0 -8.58362,-2.19157 -11.14045,-4.62645 l -2.55683,3.28734 c 2.8614,2.8614 7.30522,5.47892 14.00158,5.47893 z"
     id="text12"
     style="font-size:0.109333px;font-family:'Hasklug Nerd Font Mono';stroke-width:556.8"
     aria-label="A3" />
  <path
     fill="none"
     stroke="#000000"
     stroke-width="6.72"
     stroke-miterlimit="0"
     d="m 347.99077,1344.4708 h 264.96 m -28.33056,-28.6891 28.33056,28.6891 -28.33056,28.6891"
     id="path12" />
  <path
     d="m 425.52577,1327.3707 v -27.66 h -4.77005 v -4.2 h 4.77005 v -3.3899 q 0,-3.21 0.57,-4.7701 0.78,-2.1 2.72995,-3.3899 1.98,-1.32 5.52,-1.32 2.28,0 5.04,0.54 l -0.81,4.71 q -1.68,-0.3 -3.18,-0.3 -2.46,0 -3.48,1.05 -1.02,1.05 -1.02,3.9299 v 2.94 h 6.21005 v 4.2 h -6.21005 v 27.66 z m 37.59001,-10.26 5.58,0.69 q -1.32,4.89 -4.88996,7.59 -3.56995,2.7 -9.12,2.7 -6.99004,0 -11.10001,-4.2901 -4.08,-4.32 -4.08,-12.09 0,-8.04 4.14,-12.48 4.14,-4.44 10.74001,-4.44 6.39005,0 10.44,4.35 4.05005,4.3499 4.05005,12.24 0,0.48 -0.03,1.44 h -23.76001 q 0.3,5.2499 2.96995,8.04 2.67005,2.7899 6.66,2.7899 2.96996,0 5.07005,-1.56 2.1,-1.56 3.32992,-4.9798 z m -17.73001,-8.7299 h 17.79001 q -0.36,-4.02 -2.04,-6.0301 -2.58,-3.12 -6.68996,-3.12 -3.72,0 -6.27004,2.49 -2.52,2.49 -2.79001,6.6601 z m 29.97001,18.99 v -43.98 h 5.39999 v 43.98 z"
     id="text13"
     style="font-size:0.064px;font-family:Arial;stroke-width:960"
     aria-label="fel" />
  <path
     fill="none"
     stroke="#000000"
     stroke-width="6.72"
     stroke-miterlimit="0"
     d="M 267.35077,1344.4708 H 2.3907703 m 28.3305577,28.6891 -28.3305577,-28.6891 28.3305627,-28.6892"
     id="path13" />
  <path
     d="m 199.65576,1361.5708 v 31.86 h -4.86 v -4.53 q -3.50995,5.25 -10.14,5.25 -2.88,0 -5.28,-1.0499 -2.42995,-1.02 -3.62995,-2.7 -1.2,-1.68 -1.68,-3.9901 -0.3,-1.5 -0.3,-5.25 v -19.59 h 5.4 v 19.38 q 0,3.3 0.63,4.92 0.63,1.65 2.25005,2.6099 1.58995,0.9901 3.75005,0.9901 3.44995,0 5.96995,-2.19 2.48995,-2.19 2.48995,-8.31 v -17.4 z m -55.98,10.26 -5.58,-0.69 q 1.32,-4.8899 4.89,-7.5899 3.57,-2.7 9.12,-2.7 6.98996,0 11.1,4.29 4.08,4.32 4.08,12.09 0,8.04 -4.14,12.48 -4.14,4.44 -10.74,4.44 -6.38995,0 -10.44,-4.3499 -4.05,-4.35 -4.05,-12.24 0,-0.48 0.03,-1.44 h 23.76 q -0.3,-5.25 -2.97004,-8.04 -2.66996,-2.79 -6.66,-2.79 -2.96996,0 -5.06996,1.56 -2.1,1.56 -3.33,4.9798 z m 17.73,8.73 h -17.79 q 0.36,4.02 2.04,6.03 2.58,3.12 6.68995,3.12 3.72,0 6.26996,-2.4899 2.52,-2.4901 2.79009,-6.6601 z m -30.06,18.72 v 6.27 h -5.4 v -6.27 z m 6.84001,-50.07 -1.02001,4.59 q -1.62,-0.42 -2.55,-0.42 -1.65,0 -2.46,1.11 -0.81,1.08 -0.81,5.46 v 33.48 h -5.4 v -33.6 q 0,-5.88 1.53,-8.19 1.95001,-3 6.48,-3 2.19001,0 4.23001,0.57 z"
     id="text14"
     style="font-size:0.064px;font-family:Arial;stroke-width:960"
     aria-label="nej" />
  <path
     d="m 154.75418,1198.2878 c 1.40035,-4.4439 2.67877,-8.8272 3.95718,-13.4538 h 0.2435 c 1.21772,4.6264 2.55683,9.0097 3.95718,13.4538 l 1.887,6.0876 H 152.8672 Z m -12.17538,22.3417 h 5.17434 l 3.83524,-12.1753 h 14.48866 l 3.77455,12.1753 h 5.35697 l -13.45379,-39.9352 h -5.7224 z m 42.49203,-14.7322 10.5317,-13.2711 c 1.27841,-1.887 2.73946,-3.7746 3.95718,-5.6616 h 0.30439 c -0.12176,2.1309 -0.24351,4.7484 -0.30439,6.8791 v 12.0536 z m 14.48866,14.7322 h 4.74839 v -10.7143 h 6.0268 v -4.0179 h -6.0268 v -24.1072 h -5.35698 l -19.41968,24.7769 v 3.348 h 20.02849 z"
     id="text15"
     style="font-size:0.109333px;font-family:'Hasklug Nerd Font Mono';stroke-width:556.8"
     aria-label="A4" />
  <path
     fill="none"
     stroke="#000000"
     stroke-width="6.72"
     stroke-miterlimit="0"
     d="m 693.59077,307.67077 h 264.96 m -28.33056,-28.68912 28.33056,28.68912 -28.33056,28.68912"
     id="path15" />
  <path
     d="m 735.98077,290.57072 -12.12,-31.86 h 5.69952 l 6.84,19.08 q 1.10995,3.09005 2.04,6.42 0.72,-2.52 2.00995,-6.06 l 7.08,-19.44 h 5.55005 l -12.06,31.86 z m 42.66,-3.92995 q -3,2.54995 -5.79005,3.6 -2.76,1.05005 -5.94,1.05005 -5.24995,0 -8.07005,-2.55005 -2.82,-2.58 -2.82,-6.56995 0,-2.34 1.05005,-4.26 1.08,-1.94995 2.78995,-3.12 1.74,-1.17005 3.9,-1.77005 1.58996,-0.42 4.8,-0.81 6.54,-0.78 9.63,-1.86 0.03,-1.10995 0.03,-1.40995 0,-3.3 -1.52995,-4.65005 -2.07005,-1.82995 -6.15005,-1.82995 -3.80995,0 -5.64,1.34995 -1.8,1.32 -2.66995,4.71005 l -5.28,-0.72 q 0.72,-3.38995 2.36995,-5.46 1.65005,-2.1 4.77005,-3.20995 3.12,-1.14 7.22995,-1.14 4.08,0 6.62996,0.96 2.55004,0.96 3.75004,2.42995 1.2,1.44 1.68,3.66 0.27,1.38 0.27,4.98 v 7.2 q 0,7.52995 0.33,9.54 0.36,1.98 1.38,3.80995 h -5.64 q -0.84,-1.68 -1.0799,-3.93 z m -0.45,-12.06005 q -2.94,1.2 -8.82,2.04 -3.32995,0.48 -4.71005,1.08 -1.38,0.6 -2.12995,1.77005 -0.75,1.14 -0.75,2.54995 0,2.16 1.62,3.6 1.65005,1.44 4.8,1.44 3.12,0 5.55005,-1.35005 2.42995,-1.38 3.56995,-3.75004 0.87,-1.82996 0.87,-5.4 z m -15.9,-22.11 v -6.15005 h 5.64 v 6.15005 z m 11.19,0 v -6.15005 h 5.64 v 6.15005 z m 18.54,38.1 v -31.86 h 4.86 v 4.53005 q 3.50995,-5.25005 10.14,-5.25005 2.88,0 5.28,1.04995 2.43005,1.02 3.62995,2.7 1.2,1.68 1.68,3.99005 0.3,1.5 0.3,5.25005 v 19.59 h -5.4 v -19.38 q 0,-3.3 -0.63,-4.92 -0.63,-1.65005 -2.25005,-2.60995 -1.58995,-0.99005 -3.75004,-0.99005 -3.44996,0 -5.96996,2.18995 -2.48995,2.19005 -2.48995,8.31005 v 17.4 z m 45.96,-4.83005 0.78,4.77005 q -2.28,0.48 -4.08,0.48 -2.94,0 -4.56,-0.93 -1.62,-0.93 -2.28,-2.42995 -0.66,-1.53005 -0.66,-6.39005 v -18.33 h -3.96 v -4.2 h 3.96 v -7.89 l 5.37,-3.24 v 11.13 h 5.43 v 4.2 h -5.43 v 18.63 q 0,2.31005 0.27,2.97005 0.3,0.66 0.93,1.04995 0.66,0.39 1.86,0.39 0.9,0 2.37,-0.21005 z m 26.07,0.9 q -3,2.54996 -5.79005,3.6 -2.76,1.05005 -5.94,1.05005 -5.25005,0 -8.06995,-2.55005 -2.82,-2.57995 -2.82,-6.56995 0,-2.34 1.05005,-4.26 1.08,-1.94995 2.78995,-3.12 1.74,-1.17005 3.9,-1.77005 1.58995,-0.42 4.8,-0.81 6.54,-0.78 9.63,-1.86 0.03,-1.10995 0.03,-1.40995 0,-3.3 -1.52995,-4.65005 -2.07005,-1.82995 -6.15005,-1.82995 -3.80995,0 -5.64,1.34995 -1.8,1.32 -2.67005,4.71005 l -5.28,-0.72 q 0.72,-3.38995 2.36995,-5.46 1.65005,-2.1 4.77005,-3.20995 3.12,-1.14 7.22995,-1.14 4.08,0 6.63005,0.96 2.54995,0.96 3.75005,2.42995 1.2,1.44 1.68,3.66 0.27,1.38 0.27,4.98 v 7.2 q 0,7.52995 0.33,9.54 0.36,1.98 1.38,3.80995 h -5.64 q -0.84,-1.68 -1.08,-3.93 z m -0.45,-12.06 q -2.94,1.2 -8.82,2.04 -3.32995,0.48 -4.70995,1.08 -1.38,0.6 -2.13005,1.77005 -0.75,1.14 -0.75,2.55 0,2.16 1.62,3.6 1.64995,1.44 4.8,1.44 3.12,0 5.54995,-1.35005 2.42995,-1.38 3.56995,-3.75004 0.87,-1.82996 0.87,-5.4 z"
     id="text16"
     style="font-size:0.064px;font-family:Arial;stroke-width:960"
     aria-label="vänta" />
  <path
     d="m 492.25757,183.82955 h 12.23623 c 8.94889,0 15.03656,-3.83524 15.03656,-11.68834 0,-5.47892 -3.40929,-8.64449 -9.2533,-9.55764 v -0.24351 c 4.74839,-1.21772 7.00082,-4.74839 7.00082,-8.7054 0,-7.00081 -5.53961,-9.74027 -13.69728,-9.74027 h -11.32309 z m 5.05296,-23.1332 v -12.54064 h 5.66154 c 6.14858,0 9.31415,1.58298 9.31415,5.90503 0,4.44382 -2.73946,6.63555 -9.55764,6.63555 z m 0,18.87179 v -14.61043 h 6.45292 c 7.00081,0 10.77519,2.00893 10.77519,6.93995 0,5.41822 -3.95717,7.67048 -10.77519,7.67048 z m 31.35157,4.26119 h 26.35963 v -4.13981 h -10.16661 v -34.69977 h -3.7133 c -2.49613,1.3391 -5.41822,2.25225 -9.98381,2.86139 v 3.22666 h 8.7054 v 28.61211 H 528.6621 Z"
     id="text17"
     style="font-size:0.109333px;font-family:'Hasklug Nerd Font Mono';stroke-width:556.8"
     aria-label="B1" />
  <path
     fill="none"
     stroke="#000000"
     stroke-width="6.72"
     stroke-miterlimit="0"
     d="m 653.27076,693.59077 2e-5,264.96 m 28.68912,-28.33056 -28.68912,28.33056 -28.68912,-28.33056"
     id="path17" />
  <path
     d="m 708.14081,735.69577 h 6.21005 v 5.4 h -6.21005 z m -37.77,0 h 31.86 v 5.4 h -31.86 z m 0,13.61999 h 31.86 v 4.86 h -4.53004 q 5.25004,3.50995 5.25004,10.14 0,2.88 -1.04995,5.28 -1.02,2.43005 -2.7,3.63005 -1.68,1.2 -3.99004,1.68 -1.5,0.3 -5.25005,0.3 h -19.59 v -5.4 h 19.38 q 3.3,0 4.92,-0.63 1.65004,-0.63 2.60995,-2.24995 0.99005,-1.59005 0.99005,-3.75005 0,-3.44995 -2.18996,-5.96995 -2.19004,-2.49005 -8.31004,-2.49005 h -17.4 z m -2.63999,33.18001 -0.78,5.25005 q -2.43005,0.33 -3.54,1.82995 -1.5,2.00996 -1.5,5.49005 0,3.75005 1.5,5.78995 1.5,2.04 4.2,2.76 1.64995,0.42 6.92995,0.39 -4.17005,-3.54 -4.17005,-8.82 0,-6.57004 4.74,-10.17 4.74,-3.6 11.37,-3.6 4.56,0 8.4,1.64995 3.86995,1.65005 5.96995,4.77005 2.1,3.14995 2.1,7.38 0,5.64 -4.56,9.3 h 3.84 v 4.98 h -27.54 q -7.44,0 -10.53,-1.53004 -3.12,-1.5 -4.92,-4.8 -1.8,-3.26996 -1.8,-8.06996 0,-5.7 2.58,-9.20995 2.55,-3.50995 7.71015,-3.39005 z m 19.14,4.47005 q -6.26996,0 -9.14996,2.48995 -2.88,2.48996 -2.88,6.24 0,3.72 2.84996,6.24 2.88,2.52 9,2.52 5.85004,0 8.82,-2.60995 2.96995,-2.58 2.96995,-6.24 0,-3.6 -2.94,-6.12 -2.90995,-2.52 -8.66995,-2.52 z m -6.24,52.50001 -0.69,5.58 q -4.88995,-1.32 -7.58995,-4.89005 -2.7,-3.56995 -2.7,-9.12 0,-6.99 4.29004,-11.1 4.32,-4.08001 12.09,-4.08001 8.04,0 12.48,4.14001 4.44,4.14 4.44,10.74 0,6.39 -4.34995,10.44 -4.34995,4.04995 -12.24,4.04995 -0.48,0 -1.44,-0.03 v -23.76 q -5.24995,0.30001 -8.04,2.97001 -2.78995,2.67 -2.78995,6.66 0,2.97 1.56,5.07 1.56,2.1 4.97981,3.33009 z m 8.72995,-17.73 v 17.79 q 4.02,-0.36 6.03005,-2.04 3.12,-2.58 3.12,-6.69 0,-3.72 -2.48995,-6.27 -2.49005,-2.52 -6.6601,-2.79 z m -14.16,41.87999 -4.77005,0.78 q -0.48,-2.28 -0.48,-4.08 0,-2.94 0.93,-4.56 0.93,-1.62 2.42996,-2.28 1.53004,-0.66 6.39004,-0.66 h 18.33 v -3.96 h 4.2 v 3.96 h 7.89005 l 3.24,5.36995 h -11.13 v 5.43005 h -4.2 v -5.43005 h -18.63 q -2.31005,0 -2.97005,0.27 -0.66,0.3 -1.04995,0.93 -0.39,0.66 -0.39,1.86 0,0.9 0.21,2.37005 z"
     id="text18"
     style="font-size:0.064px;font-family:Arial;stroke-width:960"
     aria-label="inget" />
  <path
     fill="none"
     stroke="#000000"
     stroke-width="6.72"
     stroke-miterlimit="0"
     d="m 653.27076,612.95077 2e-5,-264.96 m -28.68912,28.33056 28.68912,-28.33056 28.68912,28.33056"
     id="path18" />
  <path
     d="m 636.17071,618.80078 v 5.01024 h -43.98 v -5.4 h 15.69 q -4.29004,-3.42048 -4.29004,-8.73024 0,-2.94048 1.2,-5.54976 1.16995,-2.64 3.32995,-4.32 2.12995,-1.70976 5.16,-2.66976 3.02995,-0.96 6.48,-0.96 8.18995,0 12.66,4.05024 4.47005,4.05024 4.47005,9.72 0,5.64 -4.71005,8.85024 z m -16.17,0.06 q 5.73005,0 8.28,-1.56 4.17005,-2.54976 4.17005,-6.90048 0,-3.54048 -3.06,-6.12 -3.08995,-2.57952 -9.18,-2.57952 -6.24,0 -9.21005,2.49024 -2.96995,2.46048 -2.96995,5.97024 0,3.53952 3.08995,6.12 3.06,2.58048 8.88,2.58048 z m 0.24001,-27.24 q -8.84996,0 -13.11,-4.92 -3.54,-4.10976 -3.54,-10.02 0,-6.57005 4.32,-10.74 4.29005,-4.17005 11.88,-4.17005 6.14995,0 9.69,1.86 3.50995,1.82995 5.46,5.36995 1.95004,3.50995 1.95004,7.68 0,6.69024 -4.29004,10.82995 -4.29005,4.10976 -12.36,4.11015 z m 0,-5.54976 q 6.12,0 9.18,-2.66976 3.02995,-2.66976 3.02995,-6.72 0,-4.02 -3.06,-6.69005 -3.06,-2.66995 -9.33005,-2.66995 -5.91005,0 -8.94,2.7 -3.06,2.66995 -3.06,6.66 0,4.05024 3.02995,6.72 3.02995,2.66976 9.15015,2.66976 z m -22.17,-0.96 h -6.15005 v -5.64 h 6.15005 z m 0,-11.19 h -6.15005 v -5.64 h 6.15005 z m 38.1,-18.42001 h -31.86 v -4.86 h 4.83005 q -3.38996,-1.86 -4.47005,-3.42 -1.08,-1.58995 -1.08,-3.48 0,-2.73005 1.74,-5.55005 l 5.00995,1.86 q -1.16995,1.98 -1.16995,3.96 0,1.77005 1.08,3.18 1.04995,1.40995 2.94,2.00995 2.88,0.9 6.3,0.9 h 16.68 z m -37.71,-20.49024 h -6.27005 v -5.4 h 6.27005 z m 50.07,6.84 -4.59,-1.02 q 0.42,-1.62 0.42,-2.54995 0,-1.64995 -1.11,-2.46 -1.08,-0.81 -5.46,-0.81 h -33.48 v -5.4 h 33.6 q 5.88,0 8.19,1.53005 3,1.94995 3,6.48 0,2.18995 -0.57,4.2299 z m -16.29,-41.30999 q 2.54995,3 3.6,5.79005 1.05005,2.76 1.05005,5.94 0,5.24995 -2.55005,8.06995 -2.58,2.82 -6.56995,2.82 -2.34,0 -4.26,-1.05005 -1.94995,-1.08 -3.12,-2.78995 -1.17005,-1.74 -1.77005,-3.9 -0.42,-1.59005 -0.81,-4.8 -0.78,-6.54 -1.86,-9.63 -1.10995,-0.03 -1.40995,-0.03 -3.3,0 -4.65005,1.53005 -1.82995,2.06995 -1.82995,6.14995 0,3.80995 1.34995,5.64 1.32,1.8 4.71005,2.66995 l -0.72,5.28 q -3.38995,-0.72 -5.46,-2.36995 -2.1,-1.64995 -3.20995,-4.77005 -1.14,-3.12 -1.14,-7.22995 0,-4.08 0.96,-6.62996 0.96,-2.54995 2.42995,-3.75004 1.44,-1.2 3.66,-1.68 1.38,-0.27 4.98,-0.27 h 7.2 q 7.52995,0 9.54,-0.33 1.98,-0.36 3.80995,-1.38 v 5.64 q -1.68,0.84 -3.93,1.08 z m -12.06,0.45 q 1.2,2.94 2.04,8.82 0.48,3.32995 1.08,4.71005 0.6,1.38 1.77005,2.12995 1.14,0.75 2.54995,0.75 2.16,0 3.6,-1.62 1.44,-1.65005 1.44,-4.8 0,-3.12 -1.35005,-5.54995 -1.38,-2.42996 -3.75005,-3.56996 -1.82995,-0.87 -5.39999,-0.87 z m 0.06,-28.89001 q -8.84995,0 -13.11,-4.92 -3.54,-4.10995 -3.54,-10.02 0,-6.56995 4.32,-10.74 4.29005,-4.17005 11.88,-4.17005 6.14996,0 9.69,1.86 3.50996,1.82995 5.46,5.37005 1.95005,3.50995 1.95005,7.68 0,6.68995 -4.29005,10.83 -4.29005,4.11 -12.36,4.11 z m 0,-5.55 q 6.12,0 9.18,-2.67005 3.02996,-2.66995 3.02996,-6.72 0,-4.02 -3.06,-6.68995 -3.06,-2.66995 -9.33005,-2.66995 -5.91005,0 -8.94,2.7 -3.06,2.66995 -3.06,6.66 0,4.04995 3.02995,6.72 3.03014,2.66995 9.15014,2.66995 z m 15.93,-30.63 h -31.86 l 1e-5,-4.82995 h 4.47004 q -2.34,-1.5 -3.75004,-3.99005 -1.44,-2.49005 -1.44,-5.67005 0,-3.54 1.46995,-5.79005 1.46995,-2.28 4.10995,-3.20995 -5.58,-3.78 -5.58,-9.84 0,-4.74 2.64,-7.28995 2.61005,-2.54995 8.07005,-2.54995 h 21.87 v 5.36995 h -20.06995 q -3.24,0 -4.65005,0.54 -1.44,0.51 -2.30995,1.88995 -0.87,1.38 -0.87,3.24 0,3.36 2.24995,5.58 2.22005,2.22005 7.14005,2.22005 h 18.51 v 5.4 h -20.7 q -3.6,0 -5.4,1.32 -1.8,1.32 -1.8,4.32 0,2.28 1.2,4.23005 1.2,1.92 3.50995,2.78995 2.30995,0.87 6.66,0.87 h 16.53 z"
     id="text19"
     style="font-size:0.064px;font-family:Arial;stroke-width:960"
     aria-label="börja om" />
  <path
     d="m 492.25757,529.42955 h 12.23623 c 8.94889,0 15.03656,-3.83524 15.03656,-11.68834 0,-5.47892 -3.40929,-8.64449 -9.2533,-9.55764 v -0.24351 c 4.74839,-1.21772 7.00082,-4.74839 7.00082,-8.7054 0,-7.00081 -5.53961,-9.74027 -13.69728,-9.74027 h -11.32309 z m 5.05296,-23.1332 v -12.54064 h 5.66154 c 6.14858,0 9.31415,1.58298 9.31415,5.90503 0,4.44382 -2.73946,6.63555 -9.55764,6.63555 z m 0,18.87179 v -14.61043 h 6.45292 c 7.00081,0 10.77519,2.00893 10.77519,6.93995 0,5.41822 -3.95717,7.67048 -10.77519,7.67048 z m 29.89053,4.26119 h 27.3337 v -4.32244 h -12.78413 c -2.3135,0 -4.80908,0.18263 -7.24436,0.36526 10.59256,-9.61855 17.89778,-16.86285 17.89778,-24.16807 0,-6.8791 -4.87033,-11.44486 -12.66236,-11.44486 -5.47891,0 -9.31415,2.3742 -12.78412,5.90504 l 2.86139,2.86139 c 2.49614,-2.61752 5.66154,-4.6877 9.31415,-4.6877 5.7224,0 8.46186,3.16541 8.46186,7.60962 0,6.45292 -7.24436,13.27116 -20.39375,24.89859 z"
     id="text20"
     style="font-size:0.109333px;font-family:'Hasklug Nerd Font Mono';stroke-width:556.8"
     aria-label="B2" />
  <path
     fill="none"
     stroke="#000000"
     stroke-width="6.72"
     stroke-miterlimit="0"
     d="m 653.27076,1039.1908 2e-5,264.96 m 28.68912,-28.3306 -28.68912,28.3306 -28.68912,-28.3306"
     id="path20" />
  <path
     d="m 675.20081,1057.2508 -4.77005,0.78 q -0.48,-2.28 -0.48,-4.08 0,-2.9405 0.93,-4.56 0.93,-1.6205 2.42995,-2.28 1.53005,-0.66 6.39005,-0.66 h 18.33 v -3.96 h 4.2 v 3.96 h 7.89005 l 3.24,5.3702 h -11.13 v 5.4298 h -4.2 v -5.4298 h -18.63 q -2.31005,0 -2.97005,0.27 -0.66,0.3 -1.04995,0.93 -0.39,0.66 -0.39,1.8605 0,0.9 0.21,2.3693 z m -4.83005,14.13 31.86,-12.12 v 5.6995 l -19.08,6.84 q -3.09004,1.1098 -6.42,2.04 2.52,0.72 6.06,2.0101 l 19.44,7.08 10e-6,5.55 -31.86001,-12.06 z m 3.92996,42.66 q -2.54995,-3 -3.6,-5.7899 -1.05005,-2.76 -1.05005,-5.94 0,-5.2501 2.55005,-8.0701 2.58,-2.82 6.56995,-2.82 2.34,0 4.26,1.05 1.94995,1.08 3.12,2.7899 1.17005,1.74 1.77005,3.9 0.42,1.59 0.81,4.8 0.78,6.54 1.86,9.63 1.10995,0.03 1.40995,0.03 3.3,0 4.65005,-1.5299 1.82995,-2.0701 1.82995,-6.15 0,-3.81 -1.34995,-5.64 -1.32,-1.8 -4.71005,-2.6699 l 0.72,-5.28 q 3.38995,0.72 5.46,2.37 2.1,1.6501 3.20995,4.77 1.14,3.12 1.14,7.23 0,4.08 -0.96,6.6301 -0.96,2.5499 -2.42995,3.75 -1.44,1.2 -3.66,1.68 -1.38,0.27 -4.98,0.27 h -7.2 q -7.52995,0 -9.54,0.33 -1.98,0.36 -3.80995,1.38 v -5.64 q 1.68,-0.84 3.93,-1.0802 z m 12.06009,-0.45 q -1.2,-2.94 -2.04,-8.82 -0.48,-3.3301 -1.08,-4.7101 -0.6,-1.38 -1.77004,-2.13 -1.14,-0.75 -2.54996,-0.75 -2.16,0 -3.6,1.62 -1.44,1.6499 -1.44,4.8 0,3.12 1.35005,5.55 1.38,2.43 3.75005,3.57 1.82995,0.87 5.4,0.87 z m 22.11,-15.9 h 6.15005 v 5.64 h -6.15005 z m 0,11.19 h 6.15005 v 5.64 h -6.15005 z m -38.09999,18.48 h 31.86 v 4.86 h -4.83005 q 3.38995,1.86 4.47005,3.42 1.08,1.59 1.08,3.48 0,2.7299 -1.74,5.5499 l -5.00996,-1.86 q 1.16996,-1.98 1.16996,-3.96 0,-1.7699 -1.08,-3.18 -1.04996,-1.41 -2.94,-2.0099 -2.88,-0.9 -6.3,-0.9 h -16.68 z m 4.83,32.31 -4.77005,0.78 q -0.48,-2.28 -0.48,-4.08 0,-2.94 0.93,-4.56 0.93,-1.62 2.42995,-2.28 1.53005,-0.66 6.39005,-0.66 h 18.33 v -3.96 h 4.2 v 3.96 h 7.89005 l 3.24,5.37 h -11.13 v 5.43 h -4.2 v -5.43 h -18.63 q -2.31005,0 -2.97005,0.27 -0.66,0.3 -1.04995,0.93 -0.39,0.66 -0.39,1.86 0,0.9 0.21,2.37 z m 11.1,3.27 q 8.84995,0 13.11,4.92 3.54,4.11 3.54,10.02 0,6.57 -4.32,10.74 -4.29005,4.17 -11.88,4.17 -6.14995,0 -9.69,-1.86 -3.50995,-1.83 -5.46,-5.3699 -1.95005,-3.5101 -1.95005,-7.68 0,-6.69 4.29005,-10.83 4.29005,-4.11 12.36,-4.1101 z m 0,5.55 q -6.12,0 -9.18,2.67 -3.02995,2.67 -3.02995,6.72 0,4.02 3.06,6.69 3.06,2.67 9.33005,2.67 5.91004,0 8.94,-2.7 3.05999,-2.6699 3.05999,-6.66 0,-4.05 -3.02995,-6.72 -3.02995,-2.67 -9.15014,-2.67 z m -15.93,30.63 h 31.86 v 4.8299 h -4.47005 q 2.34,1.5 3.75005,3.9901 1.44,2.49 1.44,5.67 0,3.54 -1.46995,5.7901 -1.46995,2.28 -4.10995,3.2099 5.58,3.78 5.58,9.84 0,4.74 -2.64,7.29 -2.61005,2.5499 -8.07005,2.5499 h -21.87 v -5.3699 h 20.06995 q 3.24,0 4.65005,-0.54 1.44,-0.51 2.30995,-1.89 0.87,-1.38 0.87,-3.24 0,-3.36 -2.24995,-5.58 -2.22,-2.22 -7.14,-2.22 h -18.51 v -5.4 h 20.7 q 3.6,0 5.4,-1.32 1.8,-1.32 1.8,-4.32 0,-2.28 -1.2,-4.23 -1.2,-1.92 -3.50995,-2.79 -2.30996,-0.87 -6.66,-0.87 h -16.53 z"
     id="text21"
     style="font-size:0.064px;font-family:Arial;stroke-width:960"
     aria-label="tvärtom" />
  <path
     d="m 492.25757,875.02955 h 12.23623 c 8.94889,0 15.03656,-3.83524 15.03656,-11.68834 0,-5.47892 -3.40929,-8.64449 -9.2533,-9.55764 v -0.24351 c 4.74839,-1.21772 7.00082,-4.74839 7.00082,-8.7054 0,-7.00081 -5.53961,-9.74027 -13.69728,-9.74027 h -11.32309 z m 5.05296,-23.1332 v -12.54064 h 5.66154 c 6.14858,0 9.31415,1.58298 9.31415,5.90503 0,4.44382 -2.73946,6.63555 -9.55764,6.63555 z m 0,18.87179 v -14.61043 h 6.45292 c 7.00081,0 10.77519,2.00893 10.77519,6.93995 0,5.41822 -3.95717,7.67048 -10.77519,7.67048 z m 42.91814,4.99171 c 7.73134,0 14.06254,-4.2005 14.06254,-11.07959 0,-5.35698 -4.44382,-8.76626 -9.61855,-9.86205 v -0.2435 c 4.80908,-1.58298 8.27923,-4.56576 8.27923,-9.25329 0,-6.2703 -5.53961,-9.86205 -12.84499,-9.86205 -4.99171,0 -9.19238,2.06963 -12.41887,4.87033 l 2.67877,3.16541 c 2.55682,-2.3135 5.90503,-3.95718 9.55764,-3.95718 4.74839,0 7.91396,2.3742 7.91396,6.14858 0,4.07856 -3.53067,7.24436 -12.72327,7.24436 v 3.83524 c 10.2273,0 14.1234,3.10471 14.1234,7.73133 0,4.32244 -4.01787,7.12259 -9.31415,7.12259 -4.99171,0 -8.58363,-2.19157 -11.14045,-4.62645 l -2.55683,3.28734 c 2.8614,2.8614 7.30522,5.47891 14.00157,5.47893 z"
     id="text22"
     style="font-size:0.109333px;font-family:'Hasklug Nerd Font Mono';stroke-width:556.8"
     aria-label="B3" />
  <path
     fill="none"
     stroke="#000000"
     stroke-width="6.72"
     stroke-miterlimit="0"
     d="m 693.59077,1344.4708 h 264.96 m -28.33056,-28.6891 28.33056,28.6891 -28.33056,28.6891"
     id="path22" />
  <path
     d="m 742.05577,1317.8607 5.34,-0.84 q 0.45,3.21 2.49004,4.92 2.06996,1.7101 5.76,1.7101 3.72,0 5.52,-1.5 1.8,-1.53 1.8,-3.57 0,-1.8299 -1.59004,-2.88 -1.10996,-0.72 -5.52,-1.83 -5.94,-1.5 -8.24996,-2.58 -2.28,-1.1101 -3.48,-3.03 -1.17004,-1.95 -1.17004,-4.29 0,-2.1301 0.96,-3.93 0.98995,-1.83 2.66995,-3.0299 1.26,-0.93 3.42,-1.56 2.18995,-0.66 4.68,-0.66 3.75005,0 6.57005,1.08 2.84995,1.08 4.2,2.94 1.35004,1.83 1.86,4.92 l -5.28,0.72 q -0.36,-2.46 -2.1,-3.84 -1.71005,-1.38 -4.86,-1.38 -3.72,0 -5.30996,1.23 -1.59004,1.23 -1.59004,2.88 0,1.0501 0.66,1.89 0.66,0.87 2.06995,1.44 0.81,0.3 4.76995,1.38 5.73005,1.5299 7.98,2.52 2.28,0.96 3.57005,2.82 1.28995,1.86 1.28995,4.62 0,2.7 -1.58995,5.1 -1.56,2.3699 -4.53005,3.6899 -2.97005,1.2901 -6.72,1.2901 -6.20995,0 -9.48,-2.58 -3.24,-2.58 -4.1399,-7.6502 z m 44.67,4.68 0.78,4.7701 q -2.28,0.48 -4.08,0.48 -2.94,0 -4.56,-0.93 -1.62,-0.93 -2.28,-2.43 -0.66,-1.53 -0.66,-6.39 v -18.33 h -3.96 v -4.2 h 3.96 v -7.8901 l 5.36995,-3.24 v 11.13 h 5.43005 v 4.2 h -5.43005 v 18.63 q 0,2.3101 0.27,2.9701 0.3,0.66 0.93,1.0499 0.66,0.39 1.86,0.39 0.9,0 2.37005,-0.21 z m 3.26995,-11.1 q 0,-8.8499 4.92,-13.11 4.10995,-3.54 10.02,-3.54 6.56995,0 10.74,4.32 4.17,4.2901 4.17,11.88 0,6.15 -1.86,9.69 -1.83,3.51 -5.37,5.46 -3.51005,1.9501 -7.68,1.9501 -6.68995,0 -10.83,-4.2901 -4.10995,-4.29 -4.11,-12.36 z m 5.55005,0 q 0,6.12 2.66995,9.18 2.66995,3.03 6.72,3.03 4.02,0 6.68995,-3.06 2.67005,-3.06 2.67005,-9.3301 0,-5.91 -2.7,-8.94 -2.67005,-3.06 -6.66,-3.06 -4.04995,0 -6.72,3.03 -2.66995,3.0299 -2.66995,9.1501 z m 30.63,28.14 v -44.07 h 4.92001 v 4.14 q 1.74,-2.4299 3.93,-3.6299 2.19,-1.23 5.31,-1.23 4.08,0 7.2,2.1 3.12,2.1 4.70995,5.94 1.59005,3.81 1.59005,8.37 0,4.89 -1.77005,8.82 -1.74,3.9 -5.1,6 -3.32995,2.07 -7.02,2.07 -2.7,0 -4.86,-1.14 -2.13,-1.14 -3.51,-2.88 v 15.51 z m 4.89001,-27.96 q 0,6.1501 2.49,9.09 2.49,2.94 6.03,2.94 3.6,0 6.14995,-3.03 2.58,-3.06 2.58,-9.4499 0,-6.0901 -2.52,-9.12 -2.48995,-3.03 -5.96995,-3.03 -3.44996,0 -6.12,3.24 -2.64,3.21 -2.64,9.3599 z"
     id="text23"
     style="font-size:0.064px;font-family:Arial;stroke-width:960"
     aria-label="stop" />
  <path
     fill="none"
     stroke="#000000"
     stroke-width="6.72"
     stroke-miterlimit="0"
     d="m 653.27076,1384.7908 2e-5,264.96 m 28.68912,-28.3306 -28.68912,28.3306 -28.68912,-28.3306"
     id="path23" />
  <path
     d="m 679.88081,1416.1708 0.84,5.34 q -3.20995,0.45 -4.92,2.49 -1.71005,2.07 -1.71004,5.76 0,3.72 1.5,5.52 1.52995,1.8 3.56995,1.8 1.82995,0 2.88,-1.5899 0.72,-1.11 1.83005,-5.52 1.49999,-5.94 2.57999,-8.25 1.11005,-2.28 3.02996,-3.48 1.95004,-1.1702 4.29004,-1.1702 2.13005,0 3.92996,0.96 1.83004,0.9897 3.02995,2.6697 0.93,1.26 1.56,3.42 0.66,2.19 0.66,4.68 0,3.7501 -1.08,6.57 -1.08,2.85 -2.94,4.2 -1.83005,1.3499 -4.92,1.86 l -0.72,-5.28 q 2.46,-0.36 3.84,-2.1 1.38,-1.71 1.38,-4.86 0,-3.72 -1.23005,-5.3101 -1.22995,-1.5899 -2.88,-1.5899 -1.05005,0 -1.88995,0.66 -0.87,0.66 -1.44,2.0699 -0.3,0.81 -1.38,4.7701 -1.52995,5.7299 -2.52,7.98 -0.96,2.28 -2.82,3.5699 -1.86,1.2901 -4.62,1.2901 -2.7,0 -5.1,-1.59 -2.36995,-1.56 -3.68995,-4.53 -1.29005,-2.97 -1.29005,-6.72 0,-6.2101 2.58,-9.48 2.58,-3.24 7.65014,-4.1396 z m -4.68,44.67 -4.77004,0.78 q -0.48,-2.28 -0.48,-4.08 0,-2.94 0.93,-4.56 0.93,-1.62 2.42995,-2.28 1.53005,-0.66 6.39005,-0.66 h 18.33 v -3.96 h 4.2 v 3.96 h 7.89004 l 3.24,5.37 h -11.13 v 5.43 h -4.2 v -5.43 h -18.63 q -2.31004,0 -2.97004,0.27 -0.66,0.3 -1.04996,0.93 -0.39,0.66 -0.39,1.86 0,0.9 0.21,2.37 z m 11.10001,3.2699 q 8.84995,0 13.11,4.92 3.54,4.11 3.54,10.02 0,6.5701 -4.32,10.74 -4.29005,4.1701 -11.88,4.1701 -6.14996,0 -9.69,-1.86 -3.50996,-1.8301 -5.46,-5.3701 -1.95005,-3.5099 -1.95005,-7.68 0,-6.69 4.29005,-10.83 4.29004,-4.1099 12.36,-4.11 z m 0,5.5501 q -6.12,0 -9.18,2.6699 -3.02996,2.67 -3.02996,6.72 0,4.02 3.06,6.6901 3.06,2.6699 9.33005,2.6699 5.91005,0 8.94,-2.7 3.06,-2.6699 3.06,-6.66 0,-4.0499 -3.02995,-6.72 -3.02995,-2.6699 -9.15014,-2.6699 z m -28.14,30.63 h 44.07 v 4.92 h -4.14 q 2.42995,1.74 3.62995,3.93 1.22995,2.19 1.22995,5.31 0,4.08 -2.1,7.2 -2.1,3.12 -5.94,4.71 -3.80995,1.59 -8.36995,1.59 -4.89005,0 -8.82,-1.77 -3.9,-1.74 -6,-5.1 -2.07005,-3.33 -2.07005,-7.02 0,-2.7 1.14,-4.86 1.14,-2.13 2.88,-3.51 h -15.51 z m 27.96,4.8899 q -6.15005,0 -9.08995,2.4901 -2.94,2.49 -2.94,6.03 0,3.6 3.02995,6.15 3.06,2.58 9.44995,2.58 6.09005,0 9.12,-2.52 3.02995,-2.49 3.02995,-5.97 0,-3.45 -3.24,-6.12 -3.20995,-2.64 -9.3599,-2.6401 z m -27.96,29.28 h 44.07 v 4.92 h -4.14 q 2.42995,1.74 3.62995,3.93 1.22995,2.1899 1.22995,5.3099 0,4.08 -2.1,7.2 -2.1,3.12 -5.94,4.7101 -3.80995,1.5899 -8.36995,1.5899 -4.89005,0 -8.82,-1.7699 -3.9,-1.74 -6,-5.1 -2.07005,-3.33 -2.07005,-7.02 0,-2.7 1.14,-4.86 1.14,-2.1301 2.88,-3.5101 h -15.51 z m 27.96,4.8901 q -6.15005,0 -9.08995,2.4899 -2.94,2.49 -2.94,6.0301 0,3.6 3.02995,6.1499 3.06,2.58 9.44995,2.58 6.09005,0 9.12,-2.52 3.02995,-2.4899 3.02995,-5.9699 0,-3.4501 -3.24,-6.12 -3.20995,-2.64 -9.3599,-2.64 z"
     id="text24"
     style="font-size:0.064px;font-family:Arial;stroke-width:960"
     aria-label="stopp" />
  <path
     d="m 492.25757,1220.6296 h 12.23623 c 8.94889,0 15.03656,-3.8353 15.03656,-11.6884 0,-5.4789 -3.40929,-8.6445 -9.2533,-9.5576 v -0.2435 c 4.74839,-1.2178 7.00082,-4.7484 7.00082,-8.7054 0,-7.0009 -5.53961,-9.7403 -13.69728,-9.7403 h -11.32309 z m 5.05296,-23.1332 v -12.5407 h 5.66154 c 6.14858,0 9.31415,1.583 9.31415,5.905 0,4.4439 -2.73946,6.6356 -9.55764,6.6356 z m 0,18.8717 v -14.6104 h 6.45292 c 7.00081,0 10.77519,2.0089 10.77519,6.94 0,5.4182 -3.95717,7.6704 -10.77519,7.6704 z m 33.3605,-10.4708 10.53171,-13.2711 c 1.27841,-1.887 2.73945,-3.7746 3.95718,-5.6616 h 0.30438 c -0.12175,2.1309 -0.2435,4.7484 -0.30438,6.8791 v 12.0536 z m 14.48866,14.7323 h 4.74839 v -10.7144 h 6.02681 v -4.0179 h -6.02681 v -24.1072 h -5.35697 l -19.41968,24.7769 v 3.3481 h 20.02849 z"
     id="text25"
     style="font-size:0.109333px;font-family:'Hasklug Nerd Font Mono';stroke-width:556.8"
     aria-label="B4" />
  <path
     fill="none"
     stroke="#000000"
     stroke-width="6.72"
     stroke-miterlimit="0"
     d="m 998.87076,267.35077 2e-5,-264.9599997 M 970.18166,30.721329 998.87078,2.3907703 1027.5599,30.721332"
     id="path25" />
  <path
     d="m 944.00072,225.24576 h -6.21005 v -5.4 h 6.21005 z m 37.77,0 h -31.86 v -5.4 h 31.86 z m 0,-13.61999 h -31.86 v -4.86 h 4.53005 q -5.25005,-3.50995 -5.25005,-10.14 0,-2.88 1.04995,-5.28 1.02,-2.43005 2.7,-3.63005 1.68,-1.2 3.99005,-1.68 1.5,-0.3 5.25005,-0.3 l 19.59,1e-5 v 5.4 l -19.38,-1e-5 q -3.3,0 -4.92,0.63 -1.65005,0.63 -2.60996,2.24996 -0.99004,1.59004 -0.99004,3.75004 0,3.44996 2.18995,5.96996 2.19005,2.49004 8.31005,2.49005 h 17.4 z m 2.64,-33.18001 0.78,-5.25004 q 2.43005,-0.33 3.54,-1.82996 1.5,-2.00995 1.5,-5.49004 0,-3.75005 -1.5,-5.78996 -1.5,-2.04 -4.2,-2.76 -1.64995,-0.42 -6.92995,-0.39 4.17005,3.54 4.17005,8.82 0,6.57005 -4.74,10.17 -4.74,3.6 -11.37,3.6 -4.56,0 -8.4,-1.64995 -3.86996,-1.65005 -5.96996,-4.77005 -2.1,-3.14995 -2.1,-7.38 0,-5.64 4.56,-9.3 h -3.84 l 1e-5,-4.98 h 27.54 q 7.44,0 10.53,1.53005 3.12,1.5 4.91999,4.8 1.8,3.26996 1.8,8.06996 0,5.7 -2.58,9.20995 -2.55,3.50995 -7.71014,3.39004 z m -19.14,-4.47004 q 6.26995,0 9.14995,-2.48996 2.88,-2.48995 2.88,-6.24 0,-3.72 -2.84995,-6.24 -2.88,-2.52 -9,-2.52 -5.85005,0 -8.82,2.60995 -2.96995,2.58 -2.96995,6.24 0,3.6 2.94,6.12 2.90995,2.52001 8.66995,2.52001 z m 6.24,-52.50001 0.69,-5.58 q 4.88996,1.32 7.58996,4.89004 2.69999,3.56996 2.69999,9.12 0,6.99 -4.29004,11.1 -4.32,4.08001 -12.09,4.08001 -8.04,0 -12.48,-4.14001 -4.44,-4.14 -4.44,-10.74 0,-6.39 4.34995,-10.44 4.34995,-4.04995 12.24,-4.04995 0.48,0 1.44,0.03 v 23.76 q 5.24995,-0.3 8.04,-2.97 2.78995,-2.67 2.78995,-6.66 0,-2.97 -1.56,-5.07 -1.56,-2.1 -4.97981,-3.33009 z m -8.72995,17.73 v -17.79 q -4.02,0.36 -6.03005,2.04 -3.12,2.58 -3.12,6.69 0,3.72 2.48995,6.27 2.49005,2.52 6.6601,2.79 z m 14.16,-41.879994 4.77005,-0.78 q 0.48,2.28 0.48,4.080004 0,2.94 -0.93,4.56 -0.93,1.62 -2.42995,2.28 -1.53005,0.66 -6.39005,0.66 l -18.33,-1e-5 v 3.96 h -4.2 v -3.96 h -7.89005 l -3.24,-5.36995 h 11.13 v -5.430045 h 4.2 v 5.430045 h 18.63 q 2.31005,0 2.97005,-0.27 0.66,-0.3 1.04995,-0.93 0.39,-0.66 0.39,-1.859996 0,-0.9 -0.21,-2.370048 z"
     id="text26"
     style="font-size:0.064px;font-family:Arial;stroke-width:960"
     aria-label="inget" />
  <path
     d="m 853.19852,184.56007 c 5.29628,0 9.19238,-2.13087 12.35801,-5.78331 l -2.86139,-3.10472 c -2.55683,2.8614 -5.35698,4.44382 -9.00975,4.44382 -7.67048,0 -12.66236,-6.3312 -12.66236,-16.37587 0,-9.9229 4.99171,-16.13234 12.66236,-16.13234 3.34804,0 5.96594,1.46105 8.03574,3.65261 l 2.86139,-3.22666 c -2.3135,-2.55682 -6.14858,-4.87033 -10.89697,-4.87033 -10.40993,0 -17.89777,7.85311 -17.89777,20.6981 0,13.02761 7.5487,20.69809 17.41074,20.69809 z m 21.06336,-0.73052 h 26.35963 v -4.13981 h -10.16638 v -34.69977 h -3.7133 c -2.49613,1.3391 -5.41822,2.25225 -9.98381,2.86139 v 3.22666 h 8.7054 v 28.61211 H 874.2621 Z"
     id="text27"
     style="font-size:0.109333px;font-family:'Hasklug Nerd Font Mono';stroke-width:556.8"
     aria-label="C1" />
  <path
     fill="none"
     stroke="#000000"
     stroke-width="6.72"
     stroke-miterlimit="0"
     d="m 998.87076,693.59077 2e-5,264.96 m 28.68912,-28.33056 -28.68912,28.33056 -28.68912,-28.33056"
     id="path27" />
  <path
     d="m 1025.4808,745.49077 0.84,5.34 q -3.2099,0.45 -4.92,2.49005 -1.71,2.06995 -1.71,5.76 0,3.72 1.5,5.52 1.5299,1.8 3.5699,1.8 1.83,0 2.88,-1.58996 0.72,-1.11004 1.8301,-5.52 1.5,-5.94 2.58,-8.24995 1.11,-2.28 3.0299,-3.48 1.9501,-1.17014 4.2901,-1.17014 2.1301,0 3.93,0.96 1.83,0.98995 3.0299,2.66995 0.93,1.26 1.56,3.42 0.66,2.18995 0.66,4.68 0,3.75005 -1.08,6.57005 -1.08,2.84995 -2.94,4.2 -1.83,1.34995 -4.92,1.86 l -0.72,-5.28 q 2.46,-0.36 3.84,-2.1 1.38,-1.70995 1.38,-4.86 0,-3.72 -1.23,-5.31005 -1.23,-1.59005 -2.88,-1.59005 -1.0501,0 -1.89,0.66 -0.87,0.66 -1.44,2.06995 -0.3,0.81 -1.38,4.76996 -1.5299,5.73004 -2.52,7.98 -0.96,2.28 -2.82,3.56995 -1.86,1.28995 -4.62,1.28995 -2.7,0 -5.1,-1.58995 -2.3699,-1.56 -3.6899,-4.53005 -1.2901,-2.97005 -1.2901,-6.72 0,-6.20995 2.58,-9.48 2.58,-3.24 7.6501,-4.13971 z m -9.5099,32.91 h 43.98 v 5.4 h -25.08 l 12.96,12.78 v 6.98995 l -11.82,-12.18 -20.04,13.41 v -6.66 l 16.29,-10.53 -3.66,-3.80995 h -12.63 z m 3.9299,51.48 q -2.5499,-3 -3.6,-5.79 -1.05,-2.76 -1.05,-5.94 0,-5.25 2.55,-8.07 2.58,-2.82 6.57,-2.82 2.34,0 4.26,1.05005 1.9499,1.08 3.12,2.78995 1.17,1.74 1.77,3.9 0.42,1.59 0.81,4.8 0.78,6.54 1.86,9.63 1.11,0.03 1.41,0.03 3.3,0 4.65,-1.53 1.83,-2.07 1.83,-6.15 0,-3.81 -1.35,-5.64 -1.32,-1.8 -4.71,-2.66995 l 0.72,-5.28 q 3.3899,0.72 5.46,2.36995 2.1,1.64995 3.2099,4.77005 1.14,3.12 1.14,7.23 0,4.08 -0.96,6.63 -0.96,2.55 -2.4299,3.75 -1.44,1.2 -3.66,1.68 -1.38,0.27 -4.98,0.27 h -7.2 q -7.53,0 -9.54,0.33 -1.98,0.36 -3.81,1.38 v -5.64 q 1.68,-0.84 3.93,-1.08005 z m 12.06,-0.45 q -1.2,-2.94 -2.04,-8.82 -0.48,-3.33 -1.08,-4.71 -0.6,-1.38 -1.77,-2.12995 -1.14,-0.75 -2.55,-0.75 -2.16,0 -3.6,1.62 -1.44,1.64995 -1.44,4.8 0,3.12 1.3501,5.55 1.38,2.43 3.75,3.57 1.8299,0.86995 5.3999,0.86995 z m 22.11,-15.9 h 6.1501 v 5.64 h -6.1501 z m 0,11.19 h 6.1501 v 5.64 h -6.1501 z m -38.1,18.42001 h 43.98 v 5.4 h -43.98 z"
     id="text28"
     style="font-size:0.064px;font-family:Arial;stroke-width:960"
     aria-label="skäl" />
  <path
     fill="none"
     stroke="#000000"
     stroke-width="6.72"
     stroke-miterlimit="0"
     d="m 958.55077,653.27078 -264.96,-2e-5 m 28.33056,28.68912 -28.33056,-28.68912 28.33056,-28.68912"
     id="path28" />
  <path
     d="m 898.11576,679.88082 -5.34,0.84 q -0.45,-3.20995 -2.49004,-4.92 -2.06996,-1.71004 -5.76,-1.71004 -3.72,0 -5.52,1.49999 -1.8,1.52996 -1.8,3.56996 0,1.82995 1.58995,2.88 1.11004,0.72 5.52,1.83005 5.94,1.5 8.24995,2.58 2.28,1.11004 3.48,3.02995 1.16995,1.95005 1.16995,4.29005 0,2.13004 -0.96,3.92995 -0.99005,1.83005 -2.67005,3.02995 -1.26,0.93 -3.42,1.56 -2.18995,0.66 -4.68,0.66 -3.75005,0 -6.57005,-1.08 -2.84995,-1.08 -4.2,-2.94 -1.34995,-1.83005 -1.86,-4.92 l 5.28,-0.72 q 0.36,2.46 2.1,3.84 1.70996,1.38 4.86,1.38 3.72,0 5.30996,-1.23005 1.58995,-1.22995 1.58995,-2.88 0,-1.05005 -0.66,-1.88995 -0.66,-0.87 -2.06995,-1.44 -0.81,-0.3 -4.77005,-1.38 -5.73005,-1.52995 -7.98,-2.52 -2.28,-0.96 -3.56995,-2.82 -1.29005,-1.86 -1.29005,-4.62 0,-2.7 1.59005,-5.1 1.56,-2.36995 4.52995,-3.68995 2.97005,-1.29005 6.72,-1.29005 6.21005,0 9.48,2.58 3.24,2.58 4.14038,7.65014 z m -32.85,28.2 v 6.27005 h -5.4 v -6.27005 z m 6.84001,-50.07 -1.02001,4.59 q -1.62,-0.42 -2.54995,-0.42 -1.65005,0 -2.46,1.11 -0.81,1.08 -0.81,5.46 v 33.48 h -5.4 v -33.6 q 0,-5.88 1.53005,-8.19 1.94995,-3 6.48,-3 2.18995,0 4.22991,0.57 z m -41.31001,16.29 q 3,-2.54995 5.79,-3.6 2.76,-1.05005 5.94,-1.05005 5.25005,0 8.06996,2.55005 2.82,2.58 2.82,6.56995 0,2.34 -1.04996,4.26 -1.08,1.94995 -2.79005,3.12 -1.74,1.17005 -3.9,1.77005 -1.59004,0.42 -4.8,0.81 -6.54,0.78 -9.63,1.86 -0.03,1.10995 -0.03,1.40995 0,3.3 1.53,4.65005 2.07,1.82995 6.15,1.82995 3.80996,0 5.64,-1.34995 1.8,-1.32 2.66996,-4.71005 l 5.28,0.72 q -0.72,3.38995 -2.37005,5.46 -1.64995,2.1 -4.76995,3.20995 -3.12,1.14 -7.23005,1.14 -4.08,0 -6.63,-0.96 -2.55,-0.96 -3.75,-2.42995 -1.2,-1.44 -1.68,-3.66 -0.27,-1.38 -0.27,-4.98 v -7.2 q 0,-7.52995 -0.33,-9.54 -0.36,-1.98 -1.38,-3.80995 h 5.64 q 0.84,1.68 1.08014,3.93 z m 0.45,12.06 q 2.94,-1.2 8.82,-2.04 3.32995,-0.48 4.71005,-1.08 1.38,-0.6 2.12995,-1.77005 0.75,-1.14 0.75,-2.54995 0,-2.16 -1.62,-3.6 -1.64995,-1.44 -4.8,-1.44 -3.12,0 -5.55004,1.35005 -2.43,1.38 -3.57,3.75004 -0.87,1.82996 -0.87001,5.4 z m 15.9,22.11 v 6.15005 h -5.64 v -6.15005 z m -11.19,0 v 6.15005 h -5.64 v -6.15005 z m -18.42,-38.1 v 43.98 h -5.4 v -43.98 z"
     id="text29"
     style="font-size:0.064px;font-family:Arial;stroke-width:960"
     aria-label="själ" />
  <path
     fill="none"
     stroke="#000000"
     stroke-width="6.72"
     stroke-miterlimit="0"
     d="m 998.87076,612.95077 2e-5,-264.96 m -28.68912,28.33056 28.68912,-28.33056 28.68912,28.33056"
     id="path29" />
  <path
     d="m 972.26072,561.05077 -0.84,-5.34 q 3.20995,-0.45 4.92,-2.49005 1.71005,-2.06995 1.71005,-5.76 0,-3.72 -1.5,-5.52 -1.52996,-1.8 -3.56996,-1.8 -1.82995,0 -2.88,1.58995 -0.72,1.11005 -1.83004,5.52 -1.5,5.94 -2.58,8.24995 -1.11005,2.28 -3.02996,3.48 -1.95009,1.17015 -4.29009,1.17015 -2.13005,0 -3.92995,-0.96 -1.83005,-0.98995 -3.02996,-2.66995 -0.93,-1.26 -1.56,-3.42 -0.66,-2.18996 -0.66,-4.68 0,-3.75005 1.08,-6.57005 1.08,-2.84995 2.94,-4.2 1.83005,-1.34995 4.92,-1.86 l 0.72,5.28 q -2.46,0.36 -3.84,2.1 -1.38,1.70995 -1.38,4.86 0,3.72 1.23005,5.31005 1.22995,1.59004 2.88,1.59004 1.05005,0 1.88995,-0.66 0.87,-0.66 1.44,-2.06995 0.3,-0.81 1.38,-4.76995 1.52996,-5.73005 2.52,-7.98 0.96,-2.28 2.82,-3.56995 1.86001,-1.28995 4.62001,-1.28995 2.7,0 5.09999,1.58995 2.36996,1.56 3.68996,4.53005 1.29004,2.97005 1.29004,6.72 0,6.20995 -2.58,9.48 -2.58,3.24 -7.65009,4.13971 z m 4.68,-44.67 4.77005,-0.78 q 0.48,2.28 0.48,4.08 0,2.94 -0.93,4.56 -0.93,1.62 -2.42995,2.28 -1.53005,0.66 -6.39005,0.66 h -18.33 v 3.96 h -4.2 v -3.96 h -7.89005 l -3.24,-5.37005 h 11.13 v -5.42995 h 4.2 v 5.42995 h 18.63 q 2.31005,0 2.97005,-0.27 0.66,-0.3 1.04995,-0.93 0.39,-0.66 0.39,-1.86 0,-0.9 -0.21,-2.36995 z m -32.88,-5.25005 h -6.27005 v -5.4 h 6.27005 z m 50.07,6.84005 -4.59,-1.02 q 0.42,-1.62 0.42,-2.54995 0,-1.64995 -1.11,-2.46 -1.08,-0.81 -5.46,-0.81 h -33.48 v -5.4 h 33.6 q 5.88,0 8.19,1.53005 3,1.94995 3,6.48 0,2.18995 -0.57,4.2299 z m -16.29,-41.31 q 2.54995,3 3.6,5.79 1.05005,2.76 1.05005,5.94 0,5.25 -2.55005,8.07 -2.58,2.82 -6.56995,2.82 -2.34,0 -4.26,-1.05005 -1.94995,-1.08 -3.12,-2.78995 -1.17005,-1.74 -1.77005,-3.9 -0.42,-1.59 -0.81,-4.8 -0.78,-6.54 -1.86,-9.63 -1.10995,-0.03 -1.40995,-0.03 -3.3,0 -4.65005,1.53 -1.82995,2.07 -1.82995,6.15 0,3.81 1.34995,5.64 1.32,1.8 4.71005,2.66995 l -0.72,5.28 q -3.38995,-0.72 -5.46,-2.36995 -2.1,-1.64995 -3.20995,-4.77005 -1.14,-3.12 -1.14,-7.23 0,-4.08 0.96,-6.63 0.96,-2.55 2.42995,-3.75 1.44,-1.2 3.66,-1.68 1.38,-0.27 4.98,-0.27 h 7.2 q 7.52995,0 9.54,-0.33 1.98,-0.36 3.80995,-1.38 v 5.64 q -1.68,0.84 -3.93,1.08005 z m -12.06,0.45 q 1.2,2.94 2.04,8.82 0.48,3.33 1.08,4.71 0.6,1.38 1.77005,2.12995 1.14,0.75 2.54995,0.75 2.16,0 3.6,-1.62 1.44,-1.64995 1.44,-4.8 0,-3.12 -1.35005,-5.55 -1.38,-2.43 -3.75004,-3.57 -1.82991,-0.86995 -5.39991,-0.86995 z m -22.11,15.9 h -6.15005 v -5.64 h 6.15005 z m 0,-11.19 h -6.15005 v -5.64 h 6.15005 z m 38.1,-18.42001 h -43.98 v -5.4 h 43.98 z"
     id="text30"
     style="font-size:0.064px;font-family:Arial;stroke-width:960"
     aria-label="stjäl" />
  <path
     d="m 853.19852,530.16007 c 5.29628,0 9.19238,-2.13087 12.35801,-5.78331 l -2.86139,-3.10472 c -2.55683,2.8614 -5.35698,4.44382 -9.00975,4.44382 -7.67048,0 -12.66236,-6.3312 -12.66236,-16.37587 0,-9.9229 4.99171,-16.13234 12.66236,-16.13234 3.34804,0 5.96594,1.46105 8.03574,3.65261 l 2.86139,-3.22666 c -2.3135,-2.55682 -6.14858,-4.87033 -10.89697,-4.87033 -10.40993,0 -17.89777,7.85311 -17.89777,20.6981 0,13.02761 7.5487,20.69809 17.41074,20.69809 z m 19.60231,-0.73052 h 27.3337 v -4.32244 h -12.78412 c -2.31351,0 -4.80909,0.18263 -7.24436,0.36526 10.59256,-9.61855 17.89778,-16.86285 17.89778,-24.16807 0,-6.87909 -4.87033,-11.44485 -12.66236,-11.44485 -5.47891,0 -9.31415,2.37419 -12.78413,5.90503 l 2.8614,2.86139 c 2.49613,-2.61751 5.66154,-4.6877 9.31415,-4.6877 5.7224,0 8.46186,3.16541 8.46186,7.60962 0,6.45292 -7.24436,13.27116 -20.39375,24.8986 z"
     id="text31"
     style="font-size:0.109333px;font-family:'Hasklug Nerd Font Mono';stroke-width:556.8"
     aria-label="C2" />
  <path
     fill="none"
     stroke="#000000"
     stroke-width="6.72"
     stroke-miterlimit="0"
     d="m 1039.1908,998.87077 h 264.96 m -28.3306,-28.68912 28.3306,28.68912 -28.3306,28.68913"
     id="path31" />
  <path
     d="m 1069.3108,981.77072 v -43.98 h 5.4 v 15.78 q 3.78,-4.38 9.54,-4.38 3.54,0 6.15,1.40995 2.61,1.38 3.72,3.84 1.14,2.46 1.14,7.14 v 20.19 h -5.4 v -20.18995 q 0,-4.04995 -1.7699,-5.88 -1.74,-1.86 -4.9501,-1.86 -2.4,0 -4.53,1.26 -2.1,1.22995 -3,3.36 -0.9,2.12995 -0.9,5.88 v 17.43 z m 32.16,-15.93 q 0,-8.84995 4.92,-13.11 4.1099,-3.54 10.02,-3.54 6.57,0 10.74,4.32 4.17,4.29005 4.17,11.88 0,6.14995 -1.86,9.69 -1.8299,3.50995 -5.37,5.46 -3.51,1.95005 -7.68,1.95005 -6.69,0 -10.83,-4.29005 -4.11,-4.29005 -4.11,-12.36 z m 5.55,0 q 0,6.12 2.67,9.18 2.6699,3.02995 6.72,3.02995 4.02,0 6.69,-3.06 2.67,-3.06 2.67,-9.33004 0,-5.91005 -2.7,-8.94 -2.67,-3.06 -6.66,-3.06 -4.05,0 -6.72,3.02995 -2.67,3.02995 -2.67,9.15014 z m 0.96,-22.17 v -6.15005 h 5.64 v 6.15005 z m 11.19,0 v -6.15005 h 5.64 v 6.15005 z m 17.49,40.74 5.2501,0.78 q 0.33,2.43005 1.8299,3.54 2.0101,1.5 5.4901,1.5 3.75,0 5.7899,-1.5 2.04,-1.5 2.76,-4.2 0.42,-1.64995 0.39,-6.92995 -3.54,4.17005 -8.82,4.17005 -6.5699,0 -10.17,-4.74 -3.6,-4.74 -3.6,-11.37 0,-4.56 1.6501,-8.4 1.6499,-3.86995 4.7699,-5.96995 3.15,-2.1 7.38,-2.1 5.64,0 9.3,4.56 v -3.84 h 4.98 v 27.54 q 0,7.44 -1.53,10.53 -1.5,3.12 -4.8,4.92 -3.2699,1.8 -8.0699,1.8 -5.7,0 -9.2101,-2.58 -3.5099,-2.55 -3.39,-7.71015 z m 4.4701,-19.14 q 0,6.26995 2.4899,9.14995 2.4901,2.88 6.24,2.88 3.72,0 6.24,-2.84995 2.52,-2.88 2.52,-9 0,-5.85005 -2.61,-8.82 -2.58,-2.96995 -6.24,-2.96995 -3.6,0 -6.12,2.94 -2.52,2.90995 -2.5199,8.66995 z m 52.5,6.24 5.58,0.69 q -1.32,4.88995 -4.8901,7.58995 -3.5699,2.7 -9.12,2.7 -6.99,0 -11.1,-4.29004 -4.08,-4.32 -4.08,-12.09 0,-8.04 4.14,-12.48 4.14,-4.44 10.74,-4.44 6.3901,0 10.44,4.34995 4.05,4.34995 4.05,12.24 0,0.48 -0.03,1.44 h -23.76 q 0.3,5.24995 2.97,8.04 2.67,2.78995 6.66,2.78995 2.97,0 5.0699,-1.56 2.1,-1.56 3.3302,-4.97981 z m -17.7301,-8.73 h 17.79 q -0.36,-4.02 -2.04,-6.03005 -2.58,-3.12 -6.6901,-3.12 -3.72,0 -6.27,2.48996 -2.52,2.49004 -2.7899,6.66009 z m 30.03,18.99 v -31.86 h 4.86 v 4.83005 q 1.86,-3.38995 3.42,-4.47005 1.59,-1.08 3.48,-1.08 2.7299,0 5.55,1.74 l -1.86,5.00995 q -1.98,-1.16995 -3.96,-1.16995 -1.7699,0 -3.18,1.08 -1.4099,1.04995 -2.0099,2.94 -0.9,2.88 -0.9,6.3 v 16.68 z"
     id="text32"
     style="font-size:0.064px;font-family:Arial;stroke-width:960"
     aria-label="höger" />
  <path
     fill="none"
     stroke="#000000"
     stroke-width="6.72"
     stroke-miterlimit="0"
     d="m 958.55077,998.87078 -264.96,-2e-5 m 28.33056,28.68914 -28.33056,-28.68914 28.33056,-28.68912"
     id="path32" />
  <path
     d="m 941.75078,1015.9708 12.12,31.86 h -5.69952 l -6.84,-19.08 q -1.10976,-3.09 -2.04,-6.42 -0.72,2.52 -2.01024,6.06 l -7.08,19.44 h -5.54976 l 12.06,-31.86 z m -42.66001,3.93 q 3,-2.55 5.78995,-3.6 2.76,-1.0501 5.94,-1.0501 5.24995,0 8.06995,2.5501 2.82,2.58 2.82,6.5699 0,2.34 -1.05005,4.26 -1.08,1.95 -2.78995,3.12 -1.74,1.1701 -3.9,1.7701 -1.59005,0.42 -4.8,0.81 -6.54,0.78 -9.63,1.86 -0.03,1.1099 -0.03,1.4099 0,3.3 1.53005,4.6501 2.07005,1.83 6.15005,1.83 3.80995,0 5.64,-1.3499 1.8,-1.32 2.66995,-4.7101 l 5.28,0.72 q -0.72,3.39 -2.37005,5.46 -1.64995,2.1 -4.76995,3.21 -3.12,1.14 -7.23005,1.14 -4.08,0 -6.63005,-0.96 -2.54995,-0.96 -3.75005,-2.43 -1.2,-1.44 -1.68,-3.66 -0.27,-1.38 -0.27,-4.98 l 1e-5,-7.2 q 0,-7.5299 -0.33,-9.54 -0.36,-1.98 -1.38,-3.8099 h 5.64 q 0.84,1.68 1.08019,3.9299 z m 0.45,12.06 q 2.94,-1.2 8.82,-2.04 3.33005,-0.48 4.71005,-1.08 1.38,-0.6 2.13004,-1.7701 0.75,-1.14 0.75,-2.5499 0,-2.16 -1.62,-3.6 -1.65004,-1.44 -4.8,-1.44 -3.12,0 -5.55004,1.35 -2.42996,1.38 -3.56996,3.7501 -0.87,1.8299 -0.87,5.4 z m 15.9,22.11 -1e-5,6.15 h -5.64 l 1e-5,-6.15 z m -11.19,0 -10e-6,6.15 h -5.64 l 10e-6,-6.15 z m -18.54,-38.1 v 31.86 h -4.86 v -4.5301 q -3.50996,5.2501 -10.14,5.2501 -2.88,0 -5.28,-1.05 -2.42996,-1.02 -3.62996,-2.7 -1.2,-1.68 -1.68,-3.99 -0.3,-1.5 -0.29999,-5.2501 v -19.59 h 5.4 v 19.38 q -10e-6,3.3 0.62999,4.92 0.63,1.6501 2.24996,2.61 1.58995,0.99 3.75004,0.99 3.44996,0 5.97005,-2.1899 2.48995,-2.1901 2.48996,-8.3101 v -17.4 z m -32.00999,9.5099 -5.34,0.84 q -0.45,-3.2099 -2.49005,-4.92 -2.06995,-1.71 -5.76,-1.71 -3.72,0 -5.52,1.5 -1.8,1.5299 -1.8,3.5699 0,1.83 1.59,2.88 1.11,0.72 5.52,1.8301 5.94,1.5 8.24995,2.58 2.28,1.11 3.48,3.0299 1.16995,1.9501 1.16995,4.2901 0,2.13 -0.96,3.9299 -0.99005,1.8301 -2.67005,3.03 -1.26,0.93 -3.42,1.56 -2.18995,0.66 -4.68,0.66 -3.75004,0 -6.57,-1.08 -2.85,-1.08 -4.2,-2.94 -1.35,-1.8301 -1.86,-4.92 l 5.28,-0.72 q 0.36,2.46 2.1,3.84 1.70996,1.38 4.86,1.38 3.72,0 5.30996,-1.2301 1.59004,-1.2299 1.59004,-2.88 0,-1.05 -0.66,-1.8899 -0.66,-0.87 -2.06995,-1.44 -0.81,-0.3 -4.77005,-1.38 -5.73,-1.53 -7.98,-2.52 -2.28,-0.96 -3.56999,-2.82 -1.29,-1.86 -1.29,-4.62 0,-2.7 1.59,-5.1 1.56,-2.37 4.53,-3.69 2.97,-1.29 6.72,-1.29 6.20995,0 9.48,2.58 3.24,2.58 4.14019,7.6501 z m -44.67001,-4.68 -0.78,-4.77 q 2.28,-0.48 4.08,-0.48 2.94,0 4.56,0.93 1.62,0.9301 2.28,2.4301 0.66,1.53 0.66,6.39 v 18.33 h 3.96 v 4.2 h -3.96 v 7.8901 l -5.37,3.24 v -11.13 h -5.43 v -4.2 h 5.42995 v -18.63 q 0,-2.3101 -0.27,-2.9701 -0.3,-0.66 -0.93,-1.0499 -0.66,-0.39 -1.86,-0.39 -0.9,0 -2.36995,0.2098 z m -27.09001,5.43 -5.58,-0.69 q 1.32,-4.89 4.89005,-7.59 3.56995,-2.7 9.12,-2.7 6.98995,0 11.1,4.2901 4.08,4.32 4.08,12.09 0,8.04 -4.14001,12.48 -4.14,4.44 -10.74,4.44 -6.39004,0 -10.44,-4.35 -4.04995,-4.3499 -4.04995,-12.24 0,-0.48 0.03,-1.44 h 23.76 q -0.3,-5.2499 -2.96995,-8.04 -2.67005,-2.7899 -6.66,-2.7899 -2.97005,0 -5.07005,1.56 -2.1,1.56 -3.33009,4.9798 z m 17.73,8.7301 h -17.79 q 0.36,4.02 2.04,6.0301 2.58,3.12 6.69004,3.12 3.72,0 6.26996,-2.49 2.52,-2.49 2.79,-6.6601 z m -30.02999,-18.99 v 31.86 h -4.86 v -4.83 q -1.86,3.3899 -3.42,4.47 -1.58996,1.08 -3.48,1.08 -2.73005,0 -5.55005,-1.74 l 1.86,-5.0099 q 1.98,1.1699 3.96,1.1699 1.77005,0 3.18,-1.08 1.41005,-1.0499 2.01005,-2.94 0.90001,-2.88 0.90001,-6.3 v -16.68 z"
     id="text33"
     style="font-size:0.064px;font-family:Arial;stroke-width:960"
     aria-label="vänster" />
  <path
     d="m 853.19852,875.76007 c 5.29628,0 9.19238,-2.13087 12.35801,-5.78331 l -2.86139,-3.10472 c -2.55683,2.8614 -5.35698,4.44382 -9.00975,4.44382 -7.67048,0 -12.66236,-6.3312 -12.66236,-16.37587 0,-9.9229 4.99171,-16.13234 12.66236,-16.13234 3.34804,0 5.96594,1.46105 8.03574,3.65261 l 2.86139,-3.22666 c -2.3135,-2.55682 -6.14858,-4.87033 -10.89697,-4.87033 -10.40993,0 -17.89777,7.85311 -17.89777,20.6981 0,13.02761 7.5487,20.69809 17.41074,20.69809 z m 32.62998,0 c 7.73134,0 14.06255,-4.2005 14.06255,-11.07959 0,-5.35697 -4.44383,-8.76626 -9.61856,-9.86204 v -0.24351 c 4.80908,-1.58298 8.27923,-4.56576 8.27923,-9.25329 0,-6.27029 -5.5396,-9.86204 -12.84499,-9.86204 -4.99171,0 -9.19238,2.06962 -12.41886,4.87033 l 2.67876,3.1654 c 2.55683,-2.3135 5.90503,-3.95717 9.55764,-3.95717 4.74839,0 7.91396,2.37419 7.91396,6.14857 0,4.07856 -3.53066,7.24436 -12.72326,7.24436 v 3.83524 c 10.2273,0 14.12339,3.10472 14.12339,7.73133 0,4.32244 -4.01786,7.12259 -9.31415,7.12259 -4.99171,0 -8.58363,-2.19157 -11.14045,-4.62645 l -2.55683,3.28735 c 2.8614,2.86139 7.30522,5.47891 14.00157,5.47892 z"
     id="text34"
     style="font-size:0.109333px;font-family:'Hasklug Nerd Font Mono';stroke-width:556.8"
     aria-label="C3" />
  <path
     fill="none"
     stroke="#000000"
     stroke-width="6.72"
     stroke-miterlimit="0"
     d="m 998.87076,1304.1508 2e-5,-264.96 m -28.68912,28.3305 28.68912,-28.3305 28.68912,28.3305"
     id="path34" />
  <path
     d="m 981.77072,1265.6308 v 5.0099 h -43.98 v -5.4 h 15.69 q -4.29005,-3.42 -4.29005,-8.73 0,-2.94 1.2,-5.5501 1.16995,-2.64 3.32995,-4.32 2.12995,-1.7099 5.16,-2.6699 3.02995,-0.96 6.48,-0.96 8.18995,0 12.66,4.0499 4.47005,4.0501 4.47005,9.72 0,5.64 -4.71005,8.85 z m -16.17,0.06 q 5.73004,0 8.28,-1.56 4.17004,-2.55 4.17005,-6.9 0,-3.54 -3.06,-6.12 -3.08996,-2.58 -9.18,-2.58 -6.24,0 -9.21005,2.49 -2.96995,2.46 -2.96995,5.97 -10e-6,3.54 3.08995,6.12 3.06,2.58 8.88,2.58 z m 12.24,-50.04 q 2.54995,3 3.6,5.79 1.05005,2.76 1.05005,5.94 0,5.2501 -2.55005,8.07 -2.58,2.82 -6.56995,2.82 -2.34,0 -4.26,-1.0501 -1.94996,-1.08 -3.12,-2.7899 -1.17005,-1.74 -1.77005,-3.9 -0.42,-1.59 -0.81,-4.8 -0.78,-6.54 -1.86,-9.63 -1.10995,-0.03 -1.40995,-0.03 -3.3,0 -4.65005,1.5299 -1.83,2.0701 -1.83,6.1501 0,3.8099 1.34995,5.64 1.32,1.8 4.71005,2.6699 l -0.72,5.28 q -3.38995,-0.72 -5.46,-2.37 -2.1,-1.65 -3.20995,-4.77 -1.14,-3.12 -1.14,-7.23 0,-4.08 0.96,-6.63 0.96,-2.55 2.42995,-3.75 1.44,-1.2 3.66,-1.68 1.38,-0.27 4.98,-0.27 h 7.2 q 7.52995,0 9.54,-0.33 1.98,-0.36 3.80995,-1.38 v 5.64 q -1.68,0.84 -3.92995,1.0801 z m -12.06,0.45 q 1.2,2.94 2.04,8.82 0.48,3.3299 1.08,4.71 0.6,1.38 1.77005,2.1301 1.14,0.75 2.54995,0.75 2.16,0 3.6,-1.62 1.44,-1.65 1.44,-4.8 0,-3.12 -1.35005,-5.5501 -1.38,-2.4299 -3.75005,-3.5699 -1.82995,-0.87 -5.4,-0.87 z m 15.99,-13.86 h -43.98 v -5.4 h 25.08 l -12.96,-12.78 v -6.99 l 11.82,12.18 20.04,-13.41 v 6.66 l -16.29,10.53 3.66,3.8099 h 12.63 z m -3.92995,-51.48 q 2.54995,3 3.6,5.7899 1.05005,2.76 1.05005,5.94 0,5.25 -2.55005,8.07 -2.58,2.82 -6.56995,2.82 -2.34,0 -4.26,-1.05 -1.94995,-1.08 -3.12,-2.79 -1.17005,-1.74 -1.77005,-3.9 -0.42,-1.59 -0.81,-4.8 -0.78,-6.54 -1.86,-9.63 -1.10995,-0.03 -1.40995,-0.03 -3.3,0 -4.65005,1.5301 -1.82995,2.07 -1.82995,6.1499 0,3.81 1.34995,5.64 1.32,1.8 4.71005,2.67 l -0.72,5.28 q -3.3901,-0.7199 -5.4601,-2.3699 -2.1,-1.65 -3.21,-4.77 -1.14,-3.12 -1.14,-7.23 0,-4.08 0.96,-6.6301 0.96,-2.5499 2.42996,-3.75 1.44,-1.2 3.66,-1.68 1.38004,-0.2699 4.98004,-0.2699 h 7.2 q 7.52996,0 9.54,-0.33 1.98,-0.36 3.80996,-1.38 v 5.64 q -1.68,0.84 -3.92991,1.08 z m -12.06005,0.45 q 1.2,2.94 2.04,8.82 0.48,3.33 1.08,4.71 0.6,1.38 1.77005,2.13 1.14,0.75 2.54995,0.75 2.16,0 3.6,-1.62 1.44,-1.65 1.44,-4.8 0,-3.12 -1.35004,-5.5501 -1.38,-2.4299 -3.75005,-3.5699 -1.82995,-0.87 -5.4,-0.87 z m -24.15,12.9 q -2.18995,0 -3.78,-1.59 -1.58995,-1.62 -1.58995,-3.81 0,-2.22 1.62,-3.8101 1.58995,-1.5899 3.86995,-1.5899 2.30996,0 3.9,1.5899 1.59005,1.5901 1.59005,3.78 0,2.2501 -1.59005,3.84 -1.62,1.5901 -4.02,1.5901 z m 0.03,-2.28 q 1.41005,0 2.37005,-0.93 0.96,-0.96 0.96,-2.2501 0,-1.2899 -0.96,-2.22 -0.96,-0.96 -2.31005,-0.96 -1.34995,0 -2.30995,0.93 -0.96,0.93 -0.96,2.2501 0,1.2899 0.96,2.25 0.92995,0.93 2.24995,0.93 z m 35.28001,-36.24 4.77004,-0.78 q 0.48,2.28 0.48,4.08 0,2.94 -0.93,4.56 -0.93005,1.62 -2.43005,2.28 -1.53,0.66 -6.39,0.66 h -18.33 v 3.96 h -4.2 v -3.96 h -7.89004 l -3.24,-5.3701 h 11.13 v -5.4299 h 4.2 v 5.43 h 18.63 q 2.31004,0 2.97004,-0.27 0.66,-0.3 1.04996,-0.93 0.39,-0.66 0.39,-1.86 0,-0.9 -0.20995,-2.37 z"
     id="text35"
     style="font-size:0.064px;font-family:Arial;stroke-width:960"
     aria-label="bakåt" />
  <path
     d="m 853.19852,1221.3601 c 5.29628,0 9.19238,-2.1309 12.35801,-5.7833 l -2.86139,-3.1048 c -2.55683,2.8614 -5.35698,4.4439 -9.00975,4.4439 -7.67048,0 -12.66236,-6.3312 -12.66236,-16.3759 0,-9.9229 4.99171,-16.1323 12.66236,-16.1323 3.34804,0 5.96594,1.461 8.03574,3.6526 l 2.86139,-3.2267 c -2.3135,-2.5568 -6.14858,-4.8703 -10.89697,-4.8703 -10.40993,0 -17.89777,7.8531 -17.89777,20.6981 0,13.0276 7.5487,20.6981 17.41074,20.6981 z m 23.07229,-15.4628 10.53171,-13.2711 c 1.27841,-1.887 2.73945,-3.7746 3.95717,-5.6616 h 0.30439 c -0.12176,2.1309 -0.24351,4.7484 -0.30439,6.8791 v 12.0536 z m 14.48866,14.7323 h 4.74839 v -10.7144 h 6.0268 v -4.0179 h -6.0268 v -24.1072 h -5.35697 l -19.41968,24.7769 v 3.3481 h 20.02848 z"
     id="text36"
     style="font-size:0.109333px;font-family:'Hasklug Nerd Font Mono';stroke-width:556.8"
     aria-label="C4" />
  <path
     fill="none"
     stroke="#000000"
     stroke-width="6.72"
     stroke-miterlimit="0"
     d="m 1384.7908,307.67077 h 264.96 m -28.3306,-28.68912 28.3306,28.68912 -28.3306,28.68912"
     id="path36" />
  <path
     d="m 1442.2258,252.86072 v -6.27005 h 5.4 v 6.27005 z m -6.84,50.07 1.02,-4.59 q 1.62,0.42 2.5499,0.42 1.6501,0 2.46,-1.11 0.81,-1.08 0.81,-5.46 v -33.48 h 5.4 v 33.6 q 0,5.88 -1.53,8.19 -1.95,3 -6.48,3 -2.19,0 -4.2299,-0.57 z m 18.51,-28.29 q 0,-8.84995 4.92,-13.11 4.1099,-3.54 10.02,-3.54 6.57,0 10.74,4.32 4.17,4.29005 4.17,11.88 0,6.14995 -1.86,9.69 -1.8299,3.50995 -5.3699,5.46 -3.51,1.95005 -7.68,1.95005 -6.6901,0 -10.83,-4.29005 -4.1101,-4.29005 -4.1101,-12.36 z m 5.55,0 q 0,6.12 2.67,9.18 2.6699,3.02995 6.72,3.02995 4.02,0 6.69,-3.06 2.67,-3.06 2.67,-9.33004 0,-5.91005 -2.7,-8.94 -2.67,-3.06 -6.66,-3.06 -4.05,0 -6.72,3.02995 -2.67,3.02995 -2.67,9.15014 z m 30.57,15.93 v -31.86 h 4.86 v 4.83005 q 1.86,-3.38995 3.42,-4.47005 1.5901,-1.08 3.48,-1.08 2.7301,0 5.5501,1.74 l -1.86,5.00995 q -1.98,-1.16995 -3.96,-1.16995 -1.77,0 -3.18,1.08 -1.41,1.04995 -2.01,2.94 -0.9,2.88 -0.9,6.3 v 16.68 z m 41.19,0 v -4.02 q -3.0299,4.74 -8.91,4.74 -3.81,0 -7.02,-2.1 -3.18,-2.1 -4.95,-5.84995 -1.74,-3.78 -1.74,-8.66995 0,-4.77005 1.59,-8.64 1.59,-3.9 4.77,-5.97005 3.18,-2.06995 7.11,-2.06995 2.88,0 5.13,1.22995 2.2501,1.2 3.66,3.14995 v -15.78 h 5.37 v 43.98 z m -17.07,-15.9 q 0,6.12 2.58,9.14995 2.58,3.02996 6.09,3.02996 3.54,0 6,-2.88 2.4901,-2.90996 2.4901,-8.84996 0,-6.54 -2.52,-9.6 -2.52,-3.06 -6.21,-3.06 -3.6,0 -6.03,2.94 -2.4,2.94 -2.4001,9.27005 z"
     id="text37"
     style="font-size:0.064px;font-family:Arial;stroke-width:960"
     aria-label="jord" />
  <path
     fill="none"
     stroke="#000000"
     stroke-width="6.72"
     stroke-miterlimit="0"
     d="m 1304.1508,307.67078 -264.96,-2e-5 m 28.3305,28.68912 -28.3305,-28.68912 28.3305,-28.68912"
     id="path37" />
  <path
     d="m 1263.7708,324.77083 v 43.98 h -5.4 v -15.78 q -3.78,4.38 -9.54,4.38 -3.54,-10e-6 -6.1501,-1.40996 -2.6099,-1.38 -3.72,-3.84 -1.14,-2.46 -1.14,-7.14 v -20.19 h 5.4 v 20.18995 q 0,4.04996 1.77,5.88 1.74,1.86 4.95,1.86001 2.4,0 4.5301,-1.26 2.1,-1.22996 3,-3.36 0.9,-2.12996 0.9,-5.88 v -17.43 z m -34.14,37.70999 v 6.27005 h -5.4 v -6.27005 z m 6.84,-50.07 -1.02,4.59 q -1.62,-0.42 -2.55,-0.42 -1.6499,0 -2.46,1.11 -0.81,1.08 -0.81,5.46 v 33.48 h -5.4 v -33.6 q 0,-5.88 1.53,-8.19 1.95,-3 6.48,-3 2.1899,0 4.23,0.57 z m -18.51,28.29 q 0,8.84995 -4.92,13.11 -4.11,3.54 -10.02,3.54 -6.57,0 -10.74,-4.32 -4.1701,-4.29005 -4.1701,-11.88 0,-6.14995 1.86,-9.69 1.8301,-3.50995 5.3701,-5.46 3.5099,-1.95005 7.68,-1.95005 6.69,0 10.83,4.29005 4.1099,4.29005 4.11,12.36 z m -5.55,0 q 0,-6.12 -2.67,-9.18 -2.67,-3.02995 -6.72,-3.02995 -4.02,0 -6.69,3.06 -2.6699,3.06 -2.6699,9.33005 0,5.91004 2.7,8.94 2.67,3.06 6.66,3.06 4.0499,0 6.72,-3.02995 2.67,-3.02996 2.6699,-9.15015 z m -30.57,-15.93 v 31.86 h -4.86 v -4.83005 q -1.86,3.38995 -3.42,4.47005 -1.59,1.08 -3.48,1.08 -2.73,0 -5.55,-1.74 l 1.86,-5.01 q 1.98,1.16995 3.96,1.16995 1.77,0 3.18,-1.08 1.41,-1.04995 2.01,-2.94 0.9,-2.88 0.9,-6.3 v -16.68 z m -41.19,0 v 4.02 q 3.0301,-4.74 8.9101,-4.74 3.8099,0 7.02,2.1 3.18,2.1 4.9499,5.84995 1.74,3.78 1.74,8.66995 0,4.77005 -1.59,8.64 -1.5899,3.9 -4.7699,5.97005 -3.18,2.06995 -7.1101,2.06995 -2.88,0 -5.1299,-1.22995 -2.2501,-1.2 -3.66,-3.14995 v 15.78 h -5.37 v -43.98 z m 17.07,15.9 q 0,-6.12 -2.58,-9.14996 -2.58,-3.02995 -6.0899,-3.02995 -3.54,0 -6,2.88 -2.49,2.90995 -2.49,8.84995 0,6.54 2.52,9.6 2.52,3.06 6.21,3.06 3.6,0 6.03,-2.94 2.4,-2.93999 2.3999,-9.27004 z"
     id="text38"
     style="font-size:0.064px;font-family:Arial;stroke-width:960"
     aria-label="hjord" />
  <path
     fill="none"
     stroke="#000000"
     stroke-width="6.72"
     stroke-miterlimit="0"
     d="M 1344.4708,267.35077 V 2.3907703 m -28.6891,28.3305587 28.6891,-28.3305587 28.6891,28.3305617"
     id="path38" />
  <path
     d="m 1330.0107,227.96078 0.78,-5.24995 q 2.4301,-0.33 3.54,-1.83005 1.5,-2.00995 1.5,-5.48995 0,-3.75005 -1.5,-5.79005 -1.5,-2.04 -4.2,-2.76 -1.6499,-0.42 -6.9299,-0.39 4.17,3.54 4.17,8.82 0,6.56995 -4.74,10.17 -4.74,3.6 -11.37,3.6 -4.56,0 -8.4,-1.65005 -3.8699,-1.64995 -5.9699,-4.76995 -2.1,-3.14996 -2.1,-7.38 0,-5.64 4.56,-9.3 h -3.84 v -4.98 h 27.54 q 7.44,0 10.53,1.52995 3.12,1.5 4.92,4.8 1.8,3.26995 1.8,8.07005 0,5.7 -2.58,9.20995 -2.55,3.50995 -7.7102,3.39005 z m -19.14,-4.47005 q 6.27,0 9.15,-2.49005 2.88,-2.48995 2.88,-6.24 0,-3.72 -2.85,-6.24 -2.88,-2.52 -9,-2.52 -5.85,0 -8.82,2.61005 -2.9699,2.58 -2.9699,6.24 0,3.6 2.94,6.12 2.9099,2.52 8.6699,2.52 z m -21.21,-30.65996 h -6.27 v -5.4 h 6.27 z m 50.07,6.84 -4.59,-1.02 q 0.42,-1.62 0.42,-2.54995 0,-1.64995 -1.11,-2.46 -1.08,-0.81 -5.46,-0.81 h -33.48 v -5.4 h 33.6 q 5.88,0 8.19,1.52995 3,1.95005 3,6.48 0,2.18995 -0.57,4.23 z m -28.29,-18.51 q -8.8499,0 -13.11,-4.92 -3.54,-4.10995 -3.54,-10.02 0,-6.56995 4.32,-10.74 4.2901,-4.17005 11.88,-4.17005 6.15,0 9.69,1.86 3.51,1.83005 5.46,5.37005 1.9501,3.50995 1.9501,7.68 0,6.69005 -4.2901,10.83 -4.29,4.10995 -12.36,4.11 z m 0,-5.54995 q 6.12,0 9.18,-2.67005 3.03,-2.66995 3.03,-6.72 0,-4.02 -3.06,-6.68995 -3.06,-2.66996 -9.3301,-2.66996 -5.91,0 -8.94,2.7 -3.06,2.67005 -3.06,6.66 0,4.04996 3.03,6.72 3.0299,2.67005 9.1501,2.66996 z m 15.93,-30.57 h -31.86 v -4.86 h 4.8301 q -3.39,-1.86 -4.4701,-3.42 -1.08,-1.59001 -1.08,-3.48 0,-2.73 1.74,-5.55 l 5.01,1.85995 q -1.1699,1.98 -1.1699,3.96 0,1.76999 1.08,3.18 1.0499,1.41 2.94,2.01 2.88,0.9 6.3,0.9 h 16.68 z m 0,-41.19001 h -4.02 q 4.74,3.03005 4.74,8.91005 0,3.80995 -2.1,7.02 -2.1,3.18 -5.8499,4.94995 -3.78,1.74 -8.67,1.74 -4.77,0 -8.64,-1.59 -3.9,-1.58996 -5.97,-4.76996 -2.07,-3.18 -2.07,-7.11004 0,-2.88 1.23,-5.12996 1.2,-2.25004 3.1499,-3.66 h -15.78 v -5.369949 l 43.98,3e-6 z m -15.9,17.07 q 6.12,0 9.15,-2.58 3.0299,-2.58 3.0299,-6.08995 0,-3.54 -2.88,-6 -2.9099,-2.48996 -8.8499,-2.48996 -6.54,0 -9.6,2.52 -3.06,2.52 -3.06,6.20995 0,3.6 2.94,6.03005 2.94,2.4 9.27,2.39991 z"
     id="text39"
     style="font-size:0.064px;font-family:Arial;stroke-width:960"
     aria-label="gjord" />
  <path
     d="m 1182.727,183.82955 h 10.1056 c 11.7492,0 18.263,-7.42699 18.263,-20.1502 0,-12.66236 -6.5138,-19.78494 -18.5065,-19.78494 h -9.8621 z m 5.053,-4.13981 v -31.65591 h 4.4438 c 9.1315,0 13.6364,5.60068 13.6364,15.64535 0,10.10553 -4.505,16.01062 -13.6364,16.01062 z m 32.0821,4.13981 h 26.3596 v -4.13981 h -10.1666 v -34.69977 h -3.7133 c -2.4961,1.3391 -5.4182,2.25225 -9.9838,2.86139 v 3.22666 h 8.7054 v 28.61211 h -11.2013 z"
     id="text40"
     style="font-size:0.109333px;font-family:'Hasklug Nerd Font Mono';stroke-width:556.8"
     aria-label="D1" />
  <path
     fill="none"
     stroke="#000000"
     stroke-width="6.72"
     stroke-miterlimit="0"
     d="m 1384.7908,653.27077 h 264.96 m -28.3306,-28.68912 28.3306,28.68912 -28.3306,28.68912"
     id="path40" />
  <path
     d="m 1441.8058,626.66072 5.34,-0.84 q 0.45,3.20995 2.4899,4.92 2.07,1.71005 5.76,1.71005 3.72,0 5.52,-1.5 1.8,-1.52995 1.8,-3.56995 0,-1.82995 -1.5899,-2.88 -1.1101,-0.72 -5.52,-1.83005 -5.94,-1.5 -8.2501,-2.58 -2.28,-1.11005 -3.48,-3.02995 -1.17,-1.95005 -1.17,-4.29005 0,-2.13005 0.96,-3.92995 0.9899,-1.83005 2.6699,-3.02995 1.26,-0.93 3.42,-1.56 2.19,-0.66 4.68,-0.66 3.7501,0 6.5701,1.08 2.8499,1.08 4.2,2.94 1.3499,1.83004 1.86,4.92 l -5.28,0.72 q -0.36,-2.46 -2.1,-3.84 -1.7101,-1.38 -4.86,-1.38 -3.72,0 -5.3101,1.23004 -1.5899,1.22996 -1.5899,2.88 0,1.05005 0.66,1.88996 0.66,0.87 2.0699,1.44 0.81,0.3 4.77,1.38 5.73,1.52995 7.98,2.52 2.28,0.96 3.5699,2.82 1.29,1.86 1.29,4.62 0,2.7 -1.59,5.1 -1.56,2.36995 -4.53,3.68995 -2.9701,1.29005 -6.72,1.29005 -6.21,0 -9.48,-2.58 -3.24,-2.58 -4.1397,-7.65015 z m 54.69,-0.75 5.58,0.69 q -1.32,4.88995 -4.89,7.58995 -3.5699,2.7 -9.12,2.7 -6.9899,0 -11.1,-4.29004 -4.08,-4.32 -4.08,-12.09 0,-8.04 4.14,-12.48 4.14,-4.44 10.74,-4.44 6.39,0 10.44,4.34995 4.05,4.34995 4.05,12.24 0,0.48 -0.03,1.44 h -23.76 q 0.3,5.24995 2.9699,8.04 2.67,2.78995 6.66,2.78995 2.97,0 5.0701,-1.56 2.1,-1.56 3.33,-4.97981 z m -17.73,-8.72995 h 17.79 q -0.36,-4.02 -2.04,-6.03005 -2.58,-3.12 -6.69,-3.12 -3.72,0 -6.2699,2.48995 -2.52,2.49005 -2.7901,6.6601 z m 41.88,14.16 0.78,4.77005 q -2.28,0.48 -4.08,0.48 -2.94,0 -4.56,-0.93 -1.62,-0.93 -2.28,-2.42995 -0.66,-1.53005 -0.66,-6.39005 v -18.33 h -3.96 v -4.2 h 3.96 v -7.89005 l 5.37,-3.24 v 11.13 h 5.43 v 4.2 h -5.43 v 18.63 q 0,2.31005 0.27,2.97005 0.3,0.66 0.93,1.04995 0.66,0.39 1.86,0.39 0.9,0 2.37,-0.21 z m 17.07,0 0.78,4.77005 q -2.28,0.48 -4.08,0.48 -2.94,0 -4.56,-0.93 -1.62,-0.93 -2.28,-2.42995 -0.66,-1.53005 -0.66,-6.39005 v -18.33 h -3.96 v -4.2 h 3.96 v -7.89005 l 5.3699,-3.24 v 11.13 h 5.4301 v 4.2 h -5.4301 v 18.63 q 0,2.31005 0.27,2.97005 0.3,0.66 0.93,1.04995 0.66,0.39 1.86,0.39 0.9,0 2.3701,-0.21 z"
     id="text41"
     style="font-size:0.064px;font-family:Arial;stroke-width:960"
     aria-label="sett" />
  <path
     fill="none"
     stroke="#000000"
     stroke-width="6.72"
     stroke-miterlimit="0"
     d="m 1304.1508,653.27078 -264.96,-2e-5 m 28.3305,28.68912 -28.3305,-28.68912 28.3305,-28.68912"
     id="path41" />
  <path
     d="m 1247.1358,679.88082 -5.34,0.84 q -0.45,-3.20995 -2.49,-4.92 -2.0699,-1.71004 -5.76,-1.71004 -3.72,0 -5.52,1.5 -1.8,1.52995 -1.8,3.56995 0,1.82995 1.59,2.88 1.11,0.72 5.52,1.83005 5.94,1.5 8.25,2.58 2.28,1.11004 3.48,3.02995 1.1701,1.95005 1.1701,4.29005 0,2.13004 -0.96,3.92995 -0.99,1.83005 -2.67,3.02995 -1.26,0.93 -3.42,1.56 -2.1899,0.66 -4.68,0.66 -3.75,0 -6.57,-1.08 -2.85,-1.08 -4.2,-2.94 -1.35,-1.83005 -1.86,-4.92 l 5.28,-0.72 q 0.36,2.46 2.1,3.84 1.71,1.38 4.86,1.38 3.72,0 5.31,-1.23005 1.59,-1.22995 1.59,-2.88 0,-1.05005 -0.66,-1.88995 -0.66,-0.87 -2.07,-1.44 -0.81,-0.3 -4.7699,-1.38 -5.7301,-1.52995 -7.98,-2.52 -2.28,-0.96 -3.57,-2.82 -1.2899,-1.86 -1.2899,-4.62 0,-2.7 1.5899,-5.1 1.56,-2.36995 4.5301,-3.68995 2.97,-1.29005 6.72,-1.29005 6.2099,0 9.48,2.58 3.24,2.58 4.1397,7.65014 z m -53.67,-5.58 q 3,-2.54995 5.7899,-3.6 2.76,-1.05005 5.94,-1.05005 5.2501,0 8.07,2.55005 2.82,2.58 2.82,6.56995 0,2.34 -1.05,4.26 -1.08,1.94996 -2.79,3.12 -1.74,1.17005 -3.9,1.77005 -1.59,0.42 -4.8,0.81 -6.54,0.78 -9.63,1.86 -0.03,1.10995 -0.03,1.40995 0,3.3 1.5299,4.65005 2.0701,1.82995 6.1501,1.82995 3.8099,0 5.64,-1.34995 1.8,-1.32 2.6699,-4.71005 l 5.28,0.72 q -0.72,3.38996 -2.37,5.46 -1.65,2.1 -4.77,3.20996 -3.12,1.14 -7.23,1.13999 -4.08,0 -6.63,-0.96 -2.55,-0.96 -3.75,-2.42995 -1.2,-1.44 -1.68,-3.66 -0.27,-1.38 -0.27,-4.98 v -7.2 q 0,-7.52995 -0.33,-9.54 -0.36,-1.98 -1.38,-3.80995 h 5.64 q 0.84,1.68 1.0802,3.93 z m 0.45,12.06 q 2.94,-1.2 8.82,-2.04 3.3299,-0.48 4.71,-1.08 1.38,-0.6 2.13,-1.77005 0.75,-1.14 0.75,-2.54995 0,-2.16 -1.62,-3.6 -1.65,-1.44 -4.8,-1.44 -3.12,0 -5.5501,1.35005 -2.43,1.38 -3.5699,3.75005 -0.87,1.82995 -0.87,5.4 z m 15.9,22.11 v 6.15005 h -5.64 v -6.15005 z m -11.19,0 v 6.15005 h -5.64 v -6.15005 z m -30.33,-33.27 -0.78,-4.77005 q 2.28,-0.48 4.08,-0.48 2.94,0 4.56,0.93 1.62,0.93 2.28,2.42995 0.66,1.53005 0.66,6.39005 v 18.33 h 3.96 v 4.2 h -3.96 v 7.89005 l -5.37,3.24 v -11.13 h -5.43 v -4.2 h 5.43 v -18.63 q 0,-2.31005 -0.27,-2.97005 -0.3,-0.66 -0.93,-1.04995 -0.66,-0.39 -1.86,-0.39 -0.9,0 -2.37,0.21 z m -17.07,0 -0.78,-4.77005 q 2.28,-0.48 4.08,-0.48 2.94,0 4.56,0.93 1.62,0.93 2.28,2.42995 0.66,1.53005 0.66,6.39005 v 18.33 h 3.96 v 4.2 h -3.96 v 7.89005 l -5.37,3.24 v -11.13 h -5.43 v -4.2 h 5.43 v -18.63 q 0,-2.31005 -0.27,-2.97005 -0.3,-0.66 -0.93,-1.04995 -0.66,-0.39 -1.86,-0.39 -0.9,0 -2.37,0.21 z"
     id="text42"
     style="font-size:0.064px;font-family:Arial;stroke-width:960"
     aria-label="sätt" />
  <path
     fill="none"
     stroke="#000000"
     stroke-width="6.72"
     stroke-miterlimit="0"
     d="m 1344.4708,612.95077 v -264.96 m -28.6891,28.33056 28.6891,-28.33056 28.6891,28.33056"
     id="path42" />
  <path
     d="m 1317.8607,547.40077 -0.84,-5.34 q 3.21,-0.45 4.92,-2.48995 1.7101,-2.06995 1.7101,-5.76 0,-3.72 -1.5,-5.52 -1.53,-1.8 -3.57,-1.8 -1.8299,0 -2.88,1.58995 -0.72,1.11005 -1.83,5.52 -1.5,5.94 -2.58,8.24995 -1.1101,2.28 -3.03,3.48 -1.95,1.17005 -4.29,1.17005 -2.1301,0 -3.93,-0.96 -1.83,-0.98995 -3.0299,-2.66995 -0.93,-1.26 -1.56,-3.42 -0.66,-2.18996 -0.66,-4.68 0,-3.75005 1.08,-6.57005 1.08,-2.84995 2.94,-4.2 1.83,-1.35005 4.92,-1.86 l 0.72,5.28 q -2.46,0.36 -3.84,2.1 -1.38,1.70995 -1.38,4.86 0,3.72 1.23,5.31005 1.23,1.59004 2.88,1.59004 1.0501,0 1.89,-0.66 0.87,-0.66 1.44,-2.06995 0.3,-0.81 1.38,-4.77005 1.5299,-5.72995 2.52,-7.98 0.96,-2.28 2.82,-3.56995 1.86,-1.28995 4.62,-1.28995 2.7,0 5.1,1.58995 2.3699,1.56 3.6899,4.53005 1.2901,2.96995 1.2901,6.72 0,6.21005 -2.58,9.48 -2.58,3.24 -7.6502,4.13981 z m -0.75,-54.69 0.69,-5.58 q 4.89,1.32 7.59,4.89 2.7,3.56995 2.7,9.12 0,6.99005 -4.2901,11.1 -4.32,4.08 -12.09,4.08 -8.04,0 -12.48,-4.14 -4.44,-4.14 -4.44,-10.74 0,-6.38995 4.35,-10.44 4.3499,-4.05 12.24,-4.05 0.48,0 1.44,0.03 v 23.76 q 5.2499,-0.3 8.04,-2.96995 2.7899,-2.67005 2.7899,-6.66 0,-2.96995 -1.56,-5.06996 -1.56,-2.1 -4.9798,-3.33009 z m -8.7299,17.73 v -17.79 q -4.02,0.36 -6.0301,2.04 -3.12,2.58 -3.12,6.68995 0,3.72 2.49,6.27005 2.49,2.52 6.6601,2.79 z m 14.16,-41.88 4.77,-0.78 q 0.48,2.28 0.48,4.08 0,2.94 -0.93,4.56 -0.93,1.62 -2.4299,2.28 -1.5301,0.66 -6.3901,0.66 h -18.33 v 3.96 h -4.2 v -3.96 h -7.8901 l -3.24,-5.37 h 11.13 v -5.43 h 4.2 v 5.43 h 18.63 q 2.3101,0 2.9701,-0.27 0.66,-0.3 1.0499,-0.93 0.39,-0.66 0.39,-1.86 0,-0.9 -0.2099,-2.37 z"
     id="text43"
     style="font-size:0.064px;font-family:Arial;stroke-width:960"
     aria-label="set" />
  <path
     d="m 1182.727,529.42955 h 10.1056 c 11.7492,0 18.263,-7.42699 18.263,-20.1502 0,-12.66236 -6.5138,-19.78494 -18.5065,-19.78494 h -9.8621 z m 5.053,-4.13981 v -31.65591 h 4.4438 c 9.1315,0 13.6364,5.60068 13.6364,15.64535 0,10.10553 -4.505,16.01062 -13.6364,16.01062 z m 30.6211,4.13981 h 27.3337 v -4.32244 h -12.7842 c -2.3135,0 -4.8091,0.18263 -7.2443,0.36526 10.5925,-9.61855 17.8978,-16.86285 17.8978,-24.16807 0,-6.87909 -4.8704,-11.44485 -12.6624,-11.44485 -5.4789,0 -9.3142,2.37419 -12.7841,5.90503 l 2.8614,2.86139 c 2.4961,-2.61751 5.6615,-4.6877 9.3141,-4.6877 5.7224,0 8.4619,3.16541 8.4619,7.60962 0,6.45292 -7.2444,13.27116 -20.3938,24.8986 z"
     id="text44"
     style="font-size:0.109333px;font-family:'Hasklug Nerd Font Mono';stroke-width:556.8"
     aria-label="D2" />
  <path
     fill="none"
     stroke="#000000"
     stroke-width="6.72"
     stroke-miterlimit="0"
     d="m 1344.4708,958.55077 v -264.96 m -28.6891,28.33056 28.6891,-28.33056 28.6891,28.33056"
     id="path44" />
  <path
     d="m 1327.3707,916.16077 -31.86,12.12 v -5.69952 l 19.08,-6.84 q 3.0901,-1.10995 6.42,-2.04 -2.52,-0.72 -6.06,-2.00995 l -19.44,-7.08 v -5.55005 l 31.86,12.06 z m -3.9299,-42.66 q 2.5499,3 3.6,5.79005 1.05,2.76 1.05,5.94 0,5.24995 -2.55,8.07005 -2.58,2.81999 -6.57,2.81999 -2.34,0 -4.26,-1.05004 -1.9499,-1.08 -3.12,-2.78996 -1.17,-1.74 -1.77,-3.9 -0.42,-1.58995 -0.81,-4.8 -0.78,-6.54 -1.86,-9.63 -1.11,-0.03 -1.41,-0.03 -3.3,0 -4.65,1.52996 -1.83,2.07004 -1.83,6.15004 0,3.80996 1.35,5.64 1.32,1.8 4.71,2.66996 l -0.72,5.28 q -3.3899,-0.72 -5.46,-2.36996 -2.1,-1.65004 -3.2099,-4.77004 -1.14,-3.12 -1.14,-7.22996 0,-4.08 0.96,-6.62995 0.96,-2.55005 2.4299,-3.75005 1.44,-1.2 3.66,-1.68 1.38,-0.27 4.98,-0.27 h 7.2 q 7.53,0 9.54,-0.32999 1.98,-0.36 3.81,-1.38 v 5.64 q -1.68,0.84 -3.93,1.0799 z m -12.0601,0.45 q 1.2,2.94 2.04,8.82 0.48,3.32995 1.08,4.71005 0.6,1.38 1.7701,2.12995 1.14,0.75 2.5499,0.75 2.16,0 3.6,-1.62 1.44,-1.65005 1.44,-4.8 0,-3.12 -1.35,-5.55005 -1.38,-2.42995 -3.7501,-3.56995 -1.8299,-0.87 -5.4,-0.87 z m -22.11,15.9 h -6.15 v -5.64 h 6.15 z m 0,-11.19 h -6.15 v -5.64 h 6.15 z m 38.1,-18.54 h -31.86 v -4.86 h 4.5301 q -5.2501,-3.50995 -5.2501,-10.14 0,-2.88 1.05,-5.28 1.02,-2.43005 2.7,-3.62995 1.68,-1.2 3.99,-1.68 1.5,-0.3 5.2501,-0.3 h 19.59 v 5.4 h -19.38 q -3.3,0 -4.92,0.63 -1.6501,0.63 -2.61,2.25004 -0.99,1.58996 -0.99,3.75005 0,3.44995 2.1899,5.96995 2.1901,2.48996 8.3101,2.48996 h 17.4 z m -4.83,-45.96 4.77,-0.78 q 0.48,2.28 0.48,4.08 0,2.94 -0.93,4.56 -0.93,1.62 -2.4299,2.28 -1.5301,0.66 -6.3901,0.66 h -18.33 v 3.96 h -4.2 v -3.96 h -7.89 l -3.24,-5.37 h 11.13 v -5.43 h 4.2 v 5.43 h 18.63 q 2.3101,0 2.9701,-0.27 0.66,-0.3 1.0499,-0.93 0.39,-0.66 0.39,-1.86 0,-0.9 -0.21,-2.37 z m 0.9,-26.07 q 2.5499,3 3.6,5.79005 1.05,2.76 1.05,5.94 0,5.25005 -2.55,8.06995 -2.58,2.82 -6.57,2.82 -2.34,0 -4.26,-1.05005 -1.9499,-1.08 -3.12,-2.78995 -1.17,-1.74 -1.77,-3.9 -0.42,-1.58995 -0.81,-4.8 -0.78,-6.54 -1.86,-9.63 -1.11,-0.03 -1.41,-0.03 -3.3,0 -4.65,1.52995 -1.83,2.07005 -1.83,6.15005 0,3.80995 1.35,5.64 1.32,1.8 4.71,2.67005 l -0.72,5.28 q -3.3899,-0.72 -5.46,-2.36996 -2.1,-1.65004 -3.2099,-4.77004 -1.14,-3.12 -1.14,-7.22996 0,-4.08 0.96,-6.63004 0.96,-2.54996 2.4299,-3.75005 1.44,-1.2 3.66,-1.68 1.38,-0.27 4.98,-0.27 h 7.2 q 7.53,0 9.54,-0.33 1.98,-0.36 3.81,-1.38 v 5.64 q -1.68,0.84 -3.93,1.08 z m -12.06,0.45 q 1.2,2.94 2.04,8.82 0.48,3.32995 1.08,4.70995 0.6,1.38 1.77,2.13005 1.14,0.75 2.55,0.75 2.16,0 3.6,-1.62 1.44,-1.64995 1.44,-4.8 0,-3.12 -1.35,-5.54995 -1.38,-2.42996 -3.7501,-3.56996 -1.8299,-0.87 -5.4,-0.87 z"
     id="text45"
     style="font-size:0.064px;font-family:Arial;stroke-width:960"
     aria-label="vänta" />
  <path
     d="m 1182.727,875.02955 h 10.1056 c 11.7492,0 18.263,-7.42699 18.263,-20.1502 0,-12.66236 -6.5138,-19.78494 -18.5065,-19.78494 h -9.8621 z m 5.053,-4.13981 v -31.65591 h 4.4438 c 9.1315,0 13.6364,5.60068 13.6364,15.64535 0,10.10553 -4.505,16.01062 -13.6364,16.01062 z m 43.6487,4.87033 c 7.7313,0 14.0625,-4.2005 14.0625,-11.07959 0,-5.35697 -4.4438,-8.76626 -9.6185,-9.86204 v -0.24351 c 4.809,-1.58298 8.2792,-4.56576 8.2792,-9.25329 0,-6.27029 -5.5396,-9.86204 -12.845,-9.86204 -4.9917,0 -9.1924,2.06962 -12.4189,4.87033 l 2.6788,3.1654 c 2.5568,-2.3135 5.905,-3.95717 9.5576,-3.95717 4.7484,0 7.914,2.37419 7.914,6.14857 0,4.07856 -3.5307,7.24436 -12.7233,7.24436 v 3.83524 c 10.2273,0 14.1234,3.10472 14.1234,7.73133 0,4.32244 -4.0178,7.12259 -9.3141,7.12259 -4.9917,0 -8.5836,-2.19157 -11.1405,-4.62645 l -2.5568,3.28735 c 2.8614,2.86139 7.3052,5.47891 14.0016,5.47892 z"
     id="text46"
     style="font-size:0.109333px;font-family:'Hasklug Nerd Font Mono';stroke-width:556.8"
     aria-label="D3" />
  <path
     fill="none"
     stroke="#000000"
     stroke-width="6.72"
     stroke-miterlimit="0"
     d="m 1304.1508,1344.4708 h -264.96 m 28.3305,28.6891 -28.3305,-28.6891 28.3305,-28.6892"
     id="path46" />
  <path
     d="m 1227.6058,1365.5008 q 3,-2.5499 5.79,-3.6 2.76,-1.05 5.94,-1.05 5.25,0 8.0701,2.55 2.82,2.58 2.82,6.57 0,2.34 -1.0501,4.26 -1.08,1.9499 -2.7899,3.12 -1.74,1.17 -3.9,1.77 -1.59,0.42 -4.8,0.81 -6.54,0.78 -9.63,1.86 -0.03,1.11 -0.03,1.41 0,3.3 1.5299,4.65 2.0701,1.83 6.1501,1.83 3.81,0 5.64,-1.35 1.8,-1.32 2.6699,-4.71 l 5.28,0.72 q -0.72,3.3899 -2.3699,5.46 -1.6501,2.1 -4.7701,3.2099 -3.12,1.14 -7.2299,1.14 -4.08,0 -6.6301,-0.96 -2.55,-0.96 -3.75,-2.4299 -1.2,-1.44 -1.68,-3.66 -0.27,-1.38 -0.27,-4.98 v -7.2 q 0,-7.53 -0.33,-9.54 -0.36,-1.98 -1.38,-3.81 h 5.64 q 0.84,1.68 1.08,3.93 z m 0.45,12.06 q 2.94,-1.2 8.82,-2.04 3.3299,-0.48 4.71,-1.08 1.38,-0.6 2.13,-1.77 0.75,-1.14 0.75,-2.55 0,-2.16 -1.62,-3.6 -1.6501,-1.44 -4.8,-1.44 -3.12,0 -5.55,1.3501 -2.43,1.38 -3.57,3.75 -0.87,1.83 -0.87,5.4 z m 12.9,24.15 q 0,2.19 -1.59,3.78 -1.62,1.59 -3.8099,1.59 -2.22,0 -3.8101,-1.62 -1.5899,-1.59 -1.5899,-3.87 0,-2.3099 1.5899,-3.9 1.59,-1.59 3.78,-1.59 2.25,0 3.84,1.59 1.59,1.62 1.59,4.02 z m -2.28,-0.03 q 0,-1.41 -0.93,-2.37 -0.96,-0.96 -2.2501,-0.96 -1.2899,0 -2.22,0.96 -0.96,0.96 -0.96,2.31 0,1.35 0.93,2.31 0.93,0.96 2.25,0.96 1.29,0 2.25,-0.96 0.93,-0.93 0.9301,-2.25 z m -36.24,-35.28 -0.78,-4.77 q 2.28,-0.48 4.08,-0.48 2.94,0 4.56,0.93 1.62,0.93 2.28,2.4299 0.66,1.5301 0.66,6.3901 v 18.33 h 3.96 v 4.2 h -3.96 v 7.89 l -5.3701,3.24 v -11.13 h -5.43 v -4.2 h 5.43 v -18.63 q 0,-2.31 -0.27,-2.97 -0.3,-0.66 -0.93,-1.05 -0.66,-0.39 -1.86,-0.39 -0.9,0 -2.3699,0.21 z m -27.09,5.43 -5.58,-0.69 q 1.32,-4.89 4.89,-7.59 3.57,-2.7 9.12,-2.7 6.9899,0 11.1,4.2901 4.08,4.32 4.08,12.09 0,8.04 -4.14,12.48 -4.14,4.44 -10.74,4.44 -6.39,0 -10.44,-4.35 -4.05,-4.3499 -4.05,-12.24 0,-0.48 0.03,-1.44 h 23.76 q -0.3,-5.2499 -2.97,-8.04 -2.6699,-2.7899 -6.66,-2.7899 -2.97,0 -5.07,1.56 -2.1,1.56 -3.33,4.9798 z m 17.73,8.7299 h -17.79 q 0.36,4.02 2.04,6.0301 2.58,3.12 6.69,3.12 3.72,0 6.2699,-2.49 2.52,-2.49 2.7901,-6.6601 z m -30.03,-18.99 v 31.86 h -4.86 v -4.83 q -1.86,3.3899 -3.42,4.47 -1.59,1.08 -3.48,1.08 -2.73,0 -5.55,-1.74 l 1.86,-5.0099 q 1.98,1.1699 3.96,1.1699 1.7701,0 3.18,-1.08 1.4101,-1.0499 2.01,-2.94 0.9,-2.88 0.9,-6.3 v -16.68 z"
     id="text47"
     style="font-size:0.064px;font-family:Arial;stroke-width:960"
     aria-label="åter" />
  <path
     fill="none"
     stroke="#000000"
     stroke-width="6.72"
     stroke-miterlimit="0"
     d="m 1344.4708,1304.1508 v -264.96 m -28.6891,28.3305 28.6891,-28.3305 28.6891,28.3305"
     id="path47" />
  <path
     d="m 1289.6607,1219.4008 h -6.27 v -5.4 h 6.27 z m 50.07,6.84 -4.59,-1.02 q 0.42,-1.62 0.42,-2.55 0,-1.6499 -1.11,-2.46 -1.08,-0.81 -5.46,-0.81 h -33.48 v -5.4 h 33.6 q 5.88,0 8.19,1.53 3,1.9499 3,6.48 0,2.1899 -0.57,4.23 z m -16.29,-41.31 q 2.55,3 3.6,5.7899 1.0501,2.76 1.0501,5.94 0,5.2501 -2.5501,8.0701 -2.58,2.82 -6.5699,2.82 -2.34,0 -4.26,-1.05 -1.95,-1.08 -3.12,-2.7899 -1.1701,-1.74 -1.7701,-3.9 -0.42,-1.59 -0.81,-4.8 -0.78,-6.54 -1.86,-9.63 -1.1099,-0.03 -1.4099,-0.03 -3.3,0 -4.6501,1.5299 -1.83,2.07 -1.83,6.15 0,3.8099 1.35,5.64 1.32,1.8 4.71,2.6699 l -0.72,5.28 q -3.3899,-0.72 -5.46,-2.3699 -2.1,-1.6501 -3.2099,-4.7701 -1.14,-3.12 -1.14,-7.2299 0,-4.08 0.96,-6.6301 0.96,-2.55 2.4299,-3.75 1.44,-1.2 3.66,-1.68 1.38,-0.27 4.98,-0.27 h 7.2 q 7.53,0 9.54,-0.33 1.98,-0.36 3.81,-1.38 v 5.64 q -1.68,0.84 -3.93,1.0801 z m -12.06,0.45 q 1.2,2.94 2.04,8.82 0.48,3.3299 1.08,4.71 0.6,1.38 1.7701,2.13 1.14,0.75 2.5499,0.75 2.16,0 3.6,-1.62 1.44,-1.65 1.44,-4.8 0,-3.12 -1.35,-5.5501 -1.38,-2.4299 -3.7501,-3.5699 -1.8299,-0.87 -5.4,-0.87 z"
     id="text48"
     style="font-size:0.064px;font-family:Arial;stroke-width:960"
     aria-label="ja" />
  <path
     d="m 1182.727,1220.6296 h 10.1056 c 11.7492,0 18.263,-7.427 18.263,-20.1502 0,-12.6624 -6.5138,-19.785 -18.5065,-19.785 h -9.8621 z m 5.053,-4.1399 v -31.6559 h 4.4438 c 9.1315,0 13.6364,5.6007 13.6364,15.6454 0,10.1055 -4.505,16.0106 -13.6364,16.0106 z m 34.091,-10.5925 10.5317,-13.2712 c 1.2785,-1.887 2.7395,-3.7745 3.9572,-5.6615 h 0.3044 c -0.1218,2.1309 -0.2435,4.7484 -0.3044,6.8791 v 12.0536 z m 14.4887,14.7322 h 4.7484 v -10.7143 h 6.0268 v -4.0179 h -6.0268 V 1181.79 h -5.357 l -19.4197,24.7768 v 3.3481 h 20.0285 z"
     id="text49"
     style="font-size:0.109333px;font-family:'Hasklug Nerd Font Mono';stroke-width:556.8"
     aria-label="D4" />
</svg>
