<?xml version="1.0" encoding="UTF-8" standalone="no"?>
<svg
   width="1920"
   height="1920"
   version="1.1"
   id="svg50"
   sodipodi:docname="wordmaze.svg"
   inkscape:version="1.4.2 (f4327f4, 2025-05-13)"
   xmlns:inkscape="http://www.inkscape.org/namespaces/inkscape"
   xmlns:sodipodi="http://sodipodi.sourceforge.net/DTD/sodipodi-0.dtd"
   xmlns="http://www.w3.org/2000/svg"
   xmlns:svg="http://www.w3.org/2000/svg">
  <defs
     id="defs50" />
  <sodipodi:namedview
     id="namedview50"
     pagecolor="#ffffff"
     bordercolor="#999999"
     borderopacity="1"
     inkscape:showpageshadow="2"
     inkscape:pageopacity="0"
     inkscape:pagecheckerboard="0"
     inkscape:deskcolor="#d1d1d1"
     inkscape:zoom="0.4859375"
     inkscape:cx="960"
     inkscape:cy="960"
     inkscape:window-width="1920"
     inkscape:window-height="1177"
     inkscape:window-x="-8"
     inkscape:window-y="-8"
     inkscape:window-maximized="1"
     inkscape:current-layer="svg50" />
  <path
     fill="none"
     stroke="#D3D3D3"
     stroke-width="0.0049999999"
     stroke-miterlimit="0"
     transform="matrix(960 0 0 960 960 960)"
     d="M-0.72 -0.72L0.72 -0.72M-0.72 -0.72L-0.72 0.72M-0.72 -0.36L0.72 -0.36M-0.36 -0.72L-0.36 0.72M-0.72 0L0.72 0M0 -0.72L0 0.72M-0.72 0.36L0.72 0.36M0.36 -0.72L0.36 0.72M-0.72 0.72L0.72 0.72M0.72 -0.72L0.72 0.72"
     id="path1" />
  <path
     fill="none"
     stroke="black"
     stroke-width="0.0070000002"
     stroke-miterlimit="0"
     transform="matrix(5.72205e-05 960 -960 5.72205e-05 441.6 614.4)"
     d="M-0.12 0L0.12 0M0.0904887 -0.0298845L0.12 0L0.0904887 0.0298845"
     id="path2" />
  <text
     transform="matrix(5.72205e-05 960 -960 5.72205e-05 441.6 614.4)"
     font-size="0.050666668"
     font-family="Arial"
     x="-0.061972655, -0.036639322, -0.0084609352, 0.019717447, 0.033794269, "
     y="-0.020736992, "
     id="text2">
			vänta
	</text>
  <ellipse
     fill="#020202"
     transform="matrix(960 0 0 960 441.6 441.6)"
     cx="0"
     cy="0"
     rx="0.056000002"
     ry="0.056000002"
     id="ellipse2" />
  <text
     fill="white"
     transform="matrix(960 0 0 960 441.6 441.6)"
     font-size="0.06666667"
     font-family="Hasklug Nerd Font Mono"
     x="-0.040000003, 0, "
     y="0.023699999, "
     id="text3">
			A1
	</text>
  <path
     fill="none"
     stroke="black"
     stroke-width="0.0070000002"
     stroke-miterlimit="0"
     transform="matrix(-960 -8.39259e-05 8.39259e-05 -960 268.8 787.2)"
     d="M-0.12 0L0.12 0M0.0904887 -0.0298845L0.12 0L0.0904887 0.0298845"
     id="path3" />
  <text
     transform="matrix(-960 -8.39259e-05 8.39259e-05 -960 268.8 787.2)"
     font-size="0.050666668"
     font-family="Arial"
     x="-0.084460944, -0.070384122, -0.045050785, -0.016872399, 0, 0.014076822, 0.042255208, "
     y="-0.020736992, "
     id="text4">
			tvärtom
	</text>
  <ellipse
     fill="#020202"
     transform="matrix(960 0 0 960 441.6 787.2)"
     cx="0"
     cy="0"
     rx="0.056000002"
     ry="0.056000002"
     id="ellipse4" />
  <text
     fill="white"
     transform="matrix(960 0 0 960 441.6 787.2)"
     font-size="0.06666667"
     font-family="Hasklug Nerd Font Mono"
     x="-0.040000003, 0, "
     y="0.023699999, "
     id="text5">
			A2
	</text>
  <path
     fill="none"
     stroke="black"
     stroke-width="0.0070000002"
     stroke-miterlimit="0"
     transform="matrix(5.72205e-05 960 -960 5.72205e-05 441.6 1305.6)"
     d="M-0.12 0L0.12 0M0.0904887 -0.0298845L0.12 0L0.0904887 0.0298845"
     id="path5" />
  <text
     transform="matrix(5.72205e-05 960 -960 5.72205e-05 441.6 1305.6)"
     font-size="0.050666668"
     font-family="Arial"
     x="-0.040845051, -0.015511718, 0.012666669, "
     y="-0.077736974, "
     id="text6">
			vad
	</text>
  <text
     transform="matrix(5.72205e-05 960 -960 5.72205e-05 441.6 1305.6)"
     font-size="0.050666668"
     font-family="Arial"
     x="-0.061972659, -0.036639325, -0.0084609389, 0.0056158863, 0.033794273, "
     y="-0.020736977, "
     id="text7">
			sa du
	</text>
  <path
     fill="none"
     stroke="black"
     stroke-width="0.0070000002"
     stroke-miterlimit="0"
     transform="matrix(5.72205e-05 -960 960 5.72205e-05 441.6 960)"
     d="M-0.12 0L0.12 0M0.0904887 -0.0298845L0.12 0L0.0904887 0.0298845"
     id="path7" />
  <text
     transform="matrix(5.72205e-05 -960 960 5.72205e-05 441.6 960)"
     font-size="0.050666668"
     font-family="Arial"
     x="-0.02675586, -0.0014225263, "
     y="-0.020736992, "
     id="text8">
			va
	</text>
  <ellipse
     fill="#020202"
     transform="matrix(960 0 0 960 441.6 1132.8)"
     cx="0"
     cy="0"
     rx="0.056000002"
     ry="0.056000002"
     id="ellipse8" />
  <text
     fill="white"
     transform="matrix(960 0 0 960 441.6 1132.8)"
     font-size="0.06666667"
     font-family="Hasklug Nerd Font Mono"
     x="-0.040000003, 0, "
     y="0.023699999, "
     id="text9">
			A3
	</text>
  <path
     fill="none"
     stroke="black"
     stroke-width="0.0070000002"
     stroke-miterlimit="0"
     transform="matrix(5.72205e-05 960 -960 5.72205e-05 441.6 1651.2)"
     d="M-0.12 0L0.12 0M0.0904887 -0.0298845L0.12 0L0.0904887 0.0298845"
     id="path9" />
  <text
     transform="matrix(5.72205e-05 960 -960 5.72205e-05 441.6 1651.2)"
     font-size="0.050666668"
     font-family="Arial"
     x="-0.026755858, -0.012679035, 0.01549935, "
     y="-0.020736992, "
     id="text10">
			fel
	</text>
  <path
     fill="none"
     stroke="black"
     stroke-width="0.0070000002"
     stroke-miterlimit="0"
     transform="matrix(-960 -8.39259e-05 8.39259e-05 -960 268.8 1478.4)"
     d="M-0.12 0L0.12 0M0.0904887 -0.0298845L0.12 0L0.0904887 0.0298845"
     id="path10" />
  <path
     fill="none"
     stroke="#000000"
     stroke-width="6.72"
     stroke-miterlimit="0"
     d="m 1767.1734,786.26865 h -230.4 m 28.3308,28.6891 -28.3308,-28.6891 28.3308,-28.6891"
     id="path3-6" />
  <path
     fill="none"
     stroke="#000000"
     stroke-width="6.72"
     stroke-miterlimit="0"
     d="m 1767.1734,1477.4686 h -230.4 m 28.3308,28.6891 -28.3308,-28.6891 28.3308,-28.6891"
     id="path10-0" />
  <text
     transform="matrix(-960 -8.39259e-05 8.39259e-05 -960 268.8 1478.4)"
     font-size="0.050666668"
     font-family="Arial"
     x="-0.033806641, -0.0056282543, 0.022550132, "
     y="-0.020736992, "
     id="text11">
			nej
	</text>
  <ellipse
     fill="#020202"
     transform="matrix(960 0 0 960 441.6 1478.4)"
     cx="0"
     cy="0"
     rx="0.056000002"
     ry="0.056000002"
     id="ellipse11" />
  <text
     fill="white"
     transform="matrix(960 0 0 960 441.6 1478.4)"
     font-size="0.06666667"
     font-family="Hasklug Nerd Font Mono"
     x="-0.040000003, 0, "
     y="0.023699999, "
     id="text12">
			A4
	</text>
  <path
     fill="none"
     stroke="black"
     stroke-width="0.0070000002"
     stroke-miterlimit="0"
     transform="matrix(5.72205e-05 960 -960 5.72205e-05 787.2 614.4)"
     d="M-0.12 0L0.12 0M0.0904887 -0.0298845L0.12 0L0.0904887 0.0298845"
     id="path12" />
  <text
     transform="matrix(5.72205e-05 960 -960 5.72205e-05 787.2 614.4)"
     font-size="0.050666668"
     font-family="Arial"
     x="-0.054934245, -0.043677732, -0.01549935, 0.012679037, 0.040857423, "
     y="-0.020736992, "
     id="text13">
			inget
	</text>
  <path
     fill="none"
     stroke="black"
     stroke-width="0.0070000002"
     stroke-miterlimit="0"
     transform="matrix(-960 -8.39259e-05 8.39259e-05 -960 614.4 441.6)"
     d="M-0.12 0L0.12 0M0.0904887 -0.0298845L0.12 0L0.0904887 0.0298845"
     id="path13" />
  <text
     transform="matrix(-960 -8.39259e-05 8.39259e-05 -960 614.4 441.6)"
     font-size="0.050666668"
     font-family="Arial"
     x="-0.098562494, -0.070384108, -0.042205721, -0.025333323, -0.014076814, 0.014101572, 0.028178394, 0.056356773, "
     y="-0.020736992, "
     id="text14">
			börja om
	</text>
  <ellipse
     fill="#020202"
     transform="matrix(960 0 0 960 787.2 441.6)"
     cx="0"
     cy="0"
     rx="0.056000002"
     ry="0.056000002"
     id="ellipse14" />
  <text
     fill="white"
     transform="matrix(960 0 0 960 787.2 441.6)"
     font-size="0.06666667"
     font-family="Hasklug Nerd Font Mono"
     x="-0.040000003, 0, "
     y="0.023699999, "
     id="text15">
			B1
	</text>
  <path
     fill="none"
     stroke="black"
     stroke-width="0.0070000002"
     stroke-miterlimit="0"
     transform="matrix(960 0 0 960 960 787.2)"
     d="M-0.12 0L0.12 0M0.0904887 -0.0298845L0.12 0L0.0904887 0.0298845"
     id="path15" />
  <text
     transform="matrix(960 0 0 960 960 787.2)"
     font-size="0.050666668"
     font-family="Arial"
     x="-0.047883466, -0.022550132, -0.0084733069, 0.019705079, "
     y="-0.020736992, "
     id="text16">
			stop
	</text>
  <path
     fill="none"
     stroke="black"
     stroke-width="0.0070000002"
     stroke-miterlimit="0"
     transform="matrix(-960 -8.39259e-05 8.39259e-05 -960 614.4 787.2)"
     d="M-0.12 0L0.12 0M0.0904887 -0.0298845L0.12 0L0.0904887 0.0298845"
     id="path16" />
  <text
     transform="matrix(-960 -8.39259e-05 8.39259e-05 -960 614.4 787.2)"
     font-size="0.050666668"
     font-family="Arial"
     x="-0.061972659, -0.036639325, -0.0225625, 0.0056158863, 0.033794273, "
     y="-0.020736992, "
     id="text17">
			stopp
	</text>
  <ellipse
     fill="#020202"
     transform="matrix(960 0 0 960 787.2 787.2)"
     cx="0"
     cy="0"
     rx="0.056000002"
     ry="0.056000002"
     id="ellipse17" />
  <text
     fill="white"
     transform="matrix(960 0 0 960 787.2 787.2)"
     font-size="0.06666667"
     font-family="Hasklug Nerd Font Mono"
     x="-0.040000003, 0, "
     y="0.023699999, "
     id="text18">
			B2
	</text>
  <path
     fill="none"
     stroke="black"
     stroke-width="0.0070000002"
     stroke-miterlimit="0"
     transform="matrix(5.72205e-05 960 -960 5.72205e-05 787.2 1305.6)"
     d="M-0.12 0L0.12 0M0.0904887 -0.0298845L0.12 0L0.0904887 0.0298845"
     id="path18" />
  <text
     transform="matrix(5.72205e-05 960 -960 5.72205e-05 787.2 1305.6)"
     font-size="0.050666668"
     font-family="Arial"
     x="-0.028178386, 0, "
     y="-0.020736992, "
     id="text19">
			de
	</text>
  <path
     fill="none"
     stroke="black"
     stroke-width="0.0070000002"
     stroke-miterlimit="0"
     transform="matrix(-960 -8.39259e-05 8.39259e-05 -960 614.4 1132.8)"
     d="M-0.12 0L0.12 0M0.0904887 -0.0298845L0.12 0L0.0904887 0.0298845"
     id="path19" />
  <text
     transform="matrix(-960 -8.39259e-05 8.39259e-05 -960 614.4 1132.8)"
     font-size="0.050666668"
     font-family="Arial"
     x="-0.049281251, -0.021102864, 0.0070755221, "
     y="-0.020736992, "
     id="text20">
			dem
	</text>
  <path
     fill="none"
     stroke="black"
     stroke-width="0.0070000002"
     stroke-miterlimit="0"
     transform="matrix(5.72205e-05 -960 960 5.72205e-05 787.2 960)"
     d="M-0.12 0L0.12 0M0.0904887 -0.0298845L0.12 0L0.0904887 0.0298845"
     id="path20" />
  <text
     transform="matrix(5.72205e-05 -960 960 5.72205e-05 787.2 960)"
     font-size="0.050666668"
     font-family="Arial"
     x="-0.049281251, -0.021102864, 0.0070755221, "
     y="-0.020736992, "
     id="text21">
			dom
	</text>
  <ellipse
     fill="#020202"
     transform="matrix(960 0 0 960 787.2 1132.8)"
     cx="0"
     cy="0"
     rx="0.056000002"
     ry="0.056000002"
     id="ellipse21" />
  <text
     fill="white"
     transform="matrix(960 0 0 960 787.2 1132.8)"
     font-size="0.06666667"
     font-family="Hasklug Nerd Font Mono"
     x="-0.040000003, 0, "
     y="0.023699999, "
     id="text22">
			B3
	</text>
  <path
     fill="none"
     stroke="black"
     stroke-width="0.0070000002"
     stroke-miterlimit="0"
     transform="matrix(960 0 0 960 960 1478.4)"
     d="M-0.12 0L0.12 0M0.0904887 -0.0298845L0.12 0L0.0904887 0.0298845"
     id="path22" />
  <text
     transform="matrix(960 0 0 960 960 1478.4)"
     font-size="0.050666668"
     font-family="Arial"
     x="-0.032384116, -0.0070507824, 0.0042057298, "
     y="-0.020736992, "
     id="text23">
			sig
	</text>
  <path
     fill="none"
     stroke="black"
     stroke-width="0.0070000002"
     stroke-miterlimit="0"
     transform="matrix(5.72205e-05 960 -960 5.72205e-05 787.2 1651.2)"
     d="M-0.12 0L0.12 0M0.0904887 -0.0298845L0.12 0L0.0904887 0.0298845"
     id="path23" />
  <text
     transform="matrix(5.72205e-05 960 -960 5.72205e-05 787.2 1651.2)"
     font-size="0.050666668"
     font-family="Arial"
     x="-0.040845051, -0.015511718, 0.012666669, "
     y="-0.020736992, "
     id="text24">
			säg
	</text>
  <path
     fill="none"
     stroke="black"
     stroke-width="0.0070000002"
     stroke-miterlimit="0"
     transform="matrix(-960 -8.39259e-05 8.39259e-05 -960 614.4 1478.4)"
     d="M-0.12 0L0.12 0M0.0904887 -0.0298845L0.12 0L0.0904887 0.0298845"
     id="path24" />
  <text
     transform="matrix(-960 -8.39259e-05 8.39259e-05 -960 614.4 1478.4)"
     font-size="0.050666668"
     font-family="Arial"
     x="-0.032384116, -0.0070507824, 0.021127604, "
     y="-0.020736992, "
     id="text25">
			sej
	</text>
  <ellipse
     fill="#020202"
     transform="matrix(960 0 0 960 787.2 1478.4)"
     cx="0"
     cy="0"
     rx="0.056000002"
     ry="0.056000002"
     id="ellipse25" />
  <text
     fill="white"
     transform="matrix(960 0 0 960 787.2 1478.4)"
     font-size="0.06666667"
     font-family="Hasklug Nerd Font Mono"
     x="-0.040000003, 0, "
     y="0.023699999, "
     id="text26">
			B4
	</text>
  <path
     fill="none"
     stroke="black"
     stroke-width="0.0070000002"
     stroke-miterlimit="0"
     transform="matrix(5.72205e-05 960 -960 5.72205e-05 1132.8 614.4)"
     d="M-0.12 0L0.12 0M0.0904887 -0.0298845L0.12 0L0.0904887 0.0298845"
     id="path26" />
  <text
     transform="matrix(5.72205e-05 960 -960 5.72205e-05 1132.8 614.4)"
     font-size="0.050666668"
     font-family="Arial"
     x="-0.064792968, -0.036614582, -0.0084361956, 0.019742191, 0.047920577, "
     y="-0.020736992, "
     id="text27">
			höger
	</text>
  <path
     fill="none"
     stroke="black"
     stroke-width="0.0070000002"
     stroke-miterlimit="0"
     transform="matrix(-960 -8.39259e-05 8.39259e-05 -960 960 441.6)"
     d="M-0.12 0L0.12 0M0.0904887 -0.0298845L0.12 0L0.0904887 0.0298845"
     id="path27" />
  <text
     transform="matrix(-960 -8.39259e-05 8.39259e-05 -960 960 441.6)"
     font-size="0.050666668"
     font-family="Arial"
     x="-0.083075516, -0.057742182, -0.029563796, -0.0013854131, 0.023947917, 0.038024738, 0.066203125, "
     y="-0.020736992, "
     id="text28">
			vänster
	</text>
  <ellipse
     fill="#020202"
     transform="matrix(960 0 0 960 1132.8 441.6)"
     cx="0"
     cy="0"
     rx="0.056000002"
     ry="0.056000002"
     id="ellipse28" />
  <text
     fill="white"
     transform="matrix(960 0 0 960 1132.8 441.6)"
     font-size="0.06666667"
     font-family="Hasklug Nerd Font Mono"
     x="-0.040000003, 0, "
     y="0.023699999, "
     id="text29">
			C1
	</text>
  <path
     fill="none"
     stroke="black"
     stroke-width="0.0070000002"
     stroke-miterlimit="0"
     transform="matrix(5.72205e-05 960 -960 5.72205e-05 1132.8 960)"
     d="M-0.12 0L0.12 0M0.0904887 -0.0298845L0.12 0L0.0904887 0.0298845"
     id="path29" />
  <text
     transform="matrix(5.72205e-05 960 -960 5.72205e-05 1132.8 960)"
     font-size="0.050666668"
     font-family="Arial"
     x="-0.060550131, -0.035216797, -0.0070384108, 0.018294923, 0.032371745, "
     y="-0.020736992, "
     id="text30">
			sakta
	</text>
  <ellipse
     fill="#020202"
     transform="matrix(960 0 0 960 1132.8 787.2)"
     cx="0"
     cy="0"
     rx="0.056000002"
     ry="0.056000002"
     id="ellipse30" />
  <text
     fill="white"
     transform="matrix(960 0 0 960 1132.8 787.2)"
     font-size="0.06666667"
     font-family="Hasklug Nerd Font Mono"
     x="-0.040000003, 0, "
     y="0.023699999, "
     id="text31">
			C2
	</text>
  <path
     fill="none"
     stroke="black"
     stroke-width="0.0070000002"
     stroke-miterlimit="0"
     transform="matrix(960 0 0 960 1305.6 1132.8)"
     d="M-0.12 0L0.12 0M0.0904887 -0.0298845L0.12 0L0.0904887 0.0298845"
     id="path31" />
  <text
     transform="matrix(960 0 0 960 1305.6 1132.8)"
     font-size="0.050666668"
     font-family="Arial"
     x="-0.045050781, -0.019717447, 0.0056158863, 0.033794273, "
     y="-0.020736992, "
     id="text32">
			skäl
	</text>
  <path
     fill="none"
     stroke="black"
     stroke-width="0.0070000002"
     stroke-miterlimit="0"
     transform="matrix(5.72205e-05 960 -960 5.72205e-05 1132.8 1305.6)"
     d="M-0.12 0L0.12 0M0.0904887 -0.0298845L0.12 0L0.0904887 0.0298845"
     id="path32" />
  <text
     transform="matrix(5.72205e-05 960 -960 5.72205e-05 1132.8 1305.6)"
     font-size="0.050666668"
     font-family="Arial"
     x="-0.03801237, -0.012679037, -0.0014225245, 0.026755862, "
     y="-0.020736992, "
     id="text33">
			själ
	</text>
  <path
     fill="none"
     stroke="black"
     stroke-width="0.0070000002"
     stroke-miterlimit="0"
     transform="matrix(-960 -8.39259e-05 8.39259e-05 -960 960 1132.8)"
     d="M-0.12 0L0.12 0M0.0904887 -0.0298845L0.12 0L0.0904887 0.0298845"
     id="path33" />
  <text
     transform="matrix(-960 -8.39259e-05 8.39259e-05 -960 960 1132.8)"
     font-size="0.050666668"
     font-family="Arial"
     x="-0.045050781, -0.019717447, -0.0056406222, 0.0056158863, 0.033794273, "
     y="-0.020736992, "
     id="text34">
			stjäl
	</text>
  <ellipse
     fill="#020202"
     transform="matrix(960 0 0 960 1132.8 1132.8)"
     cx="0"
     cy="0"
     rx="0.056000002"
     ry="0.056000002"
     id="ellipse34" />
  <text
     fill="white"
     transform="matrix(960 0 0 960 1132.8 1132.8)"
     font-size="0.06666667"
     font-family="Hasklug Nerd Font Mono"
     x="-0.040000003, 0, "
     y="0.023699999, "
     id="text35">
			C3
	</text>
  <path
     fill="none"
     stroke="black"
     stroke-width="0.0070000002"
     stroke-miterlimit="0"
     transform="matrix(5.72205e-05 960 -960 5.72205e-05 1132.8 1651.2)"
     d="M-0.12 0L0.12 0M0.0904887 -0.0298845L0.12 0L0.0904887 0.0298845"
     id="path35" />
  <path
     fill="none"
     stroke="#000000"
     stroke-width="6.72"
     stroke-miterlimit="0"
     d="m 443.04358,150.90675 2e-5,230.4 m 28.68912,-28.3308 -28.68912,28.3308 -28.68912,-28.3308"
     id="path9-3" />
  <path
     fill="none"
     stroke="#000000"
     stroke-width="6.72"
     stroke-miterlimit="0"
     d="m 788.64358,150.90675 2e-5,230.4 m 28.68912,-28.3308 -28.68912,28.3308 -28.68912,-28.3308"
     id="path23-8" />
  <path
     fill="none"
     stroke="#000000"
     stroke-width="6.72"
     stroke-miterlimit="0"
     d="m 1134.2436,150.90675 0,230.4 m 28.6891,-28.3308 -28.6891,28.3308 -28.6891,-28.3308"
     id="path35-9" />
  <text
     transform="matrix(5.72205e-05 960 -960 5.72205e-05 1132.8 1651.2)"
     font-size="0.050666668"
     font-family="Arial"
     x="-0.061972655, -0.033794269, -0.0056158826, 0.019717447, 0.047895834, "
     y="-0.020736992, "
     id="text36">
			bakåt
	</text>
  <ellipse
     fill="#020202"
     transform="matrix(960 0 0 960 1132.8 1478.4)"
     cx="0"
     cy="0"
     rx="0.056000002"
     ry="0.056000002"
     id="ellipse36" />
  <text
     fill="white"
     transform="matrix(960 0 0 960 1132.8 1478.4)"
     font-size="0.06666667"
     font-family="Hasklug Nerd Font Mono"
     x="-0.040000003, 0, "
     y="0.023699999, "
     id="text37">
			C4
	</text>
  <path
     fill="none"
     stroke="black"
     stroke-width="0.0070000002"
     stroke-miterlimit="0"
     transform="matrix(960 0 0 960 1651.2 441.6)"
     d="M-0.12 0L0.12 0M0.0904887 -0.0298845L0.12 0L0.0904887 0.0298845"
     id="path37" />
  <text
     transform="matrix(960 0 0 960 1651.2 441.6)"
     font-size="0.050666668"
     font-family="Arial"
     x="-0.04224284, -0.03098633, -0.002807945, 0.014064454, "
     y="-0.020736992, "
     id="text38">
			jord
	</text>
  <path
     fill="none"
     stroke="black"
     stroke-width="0.0070000002"
     stroke-miterlimit="0"
     transform="matrix(-960 -8.39259e-05 8.39259e-05 -960 1305.6 441.6)"
     d="M-0.12 0L0.12 0M0.0904887 -0.0298845L0.12 0L0.0904887 0.0298845"
     id="path38" />
  <text
     transform="matrix(-960 -8.39259e-05 8.39259e-05 -960 1305.6 441.6)"
     font-size="0.050666668"
     font-family="Arial"
     x="-0.056332033, -0.028153647, -0.016897138, 0.011281248, 0.028153647, "
     y="-0.020736992, "
     id="text39">
			hjord
	</text>
  <path
     fill="none"
     stroke="black"
     stroke-width="0.0070000002"
     stroke-miterlimit="0"
     transform="matrix(5.72205e-05 -960 960 5.72205e-05 1478.4 268.8)"
     d="M-0.12 0L0.12 0M0.0904887 -0.0298845L0.12 0L0.0904887 0.0298845"
     id="path39" />
  <path
     fill="none"
     stroke="#000000"
     stroke-width="6.72"
     stroke-miterlimit="0"
     d="m 1479.2558,1768.5946 v -230.4 m -28.6891,28.3309 28.6891,-28.3309 28.6891,28.3309"
     id="path39-4" />
  <text
     transform="matrix(5.72205e-05 -960 960 5.72205e-05 1478.4 268.8)"
     font-size="0.050666668"
     font-family="Arial"
     x="-0.056332033, -0.028153647, -0.016897138, 0.011281248, 0.028153647, "
     y="-0.020736992, "
     id="text40">
			gjord
	</text>
  <ellipse
     fill="#020202"
     transform="matrix(960 0 0 960 1478.4 441.6)"
     cx="0"
     cy="0"
     rx="0.056000002"
     ry="0.056000002"
     id="ellipse40" />
  <text
     fill="white"
     transform="matrix(960 0 0 960 1478.4 441.6)"
     font-size="0.06666667"
     font-family="Hasklug Nerd Font Mono"
     x="-0.040000003, 0, "
     y="0.023699999, "
     id="text41">
			D1
	</text>
  <path
     fill="none"
     stroke="black"
     stroke-width="0.0070000002"
     stroke-miterlimit="0"
     transform="matrix(-960 -8.39259e-05 8.39259e-05 -960 1305.6 787.2)"
     d="M-0.12 0L0.12 0M0.0904887 -0.0298845L0.12 0L0.0904887 0.0298845"
     id="path41" />
  <text
     transform="matrix(-960 -8.39259e-05 8.39259e-05 -960 1305.6 787.2)"
     font-size="0.050666668"
     font-family="Arial"
     x="-0.043652996, -0.01547461, -0.0013977885, 0.026780598, "
     y="-0.020736992, "
     id="text42">
			åter
	</text>
  <path
     fill="none"
     stroke="black"
     stroke-width="0.0070000002"
     stroke-miterlimit="0"
     transform="matrix(5.72205e-05 -960 960 5.72205e-05 1478.4 614.4)"
     d="M-0.12 0L0.12 0M0.0904887 -0.0298845L0.12 0L0.0904887 0.0298845"
     id="path42" />
  <text
     transform="matrix(5.72205e-05 -960 960 5.72205e-05 1478.4 614.4)"
     font-size="0.050666668"
     font-family="Arial"
     x="-0.019717447, -0.0084609371, "
     y="-0.020736992, "
     id="text43">
			ja
	</text>
  <ellipse
     fill="#020202"
     transform="matrix(960 0 0 960 1478.4 787.2)"
     cx="0"
     cy="0"
     rx="0.056000002"
     ry="0.056000002"
     id="ellipse43" />
  <text
     fill="white"
     transform="matrix(960 0 0 960 1478.4 787.2)"
     font-size="0.06666667"
     font-family="Hasklug Nerd Font Mono"
     x="-0.040000003, 0, "
     y="0.023699999, "
     id="text44">
			D2
	</text>
  <path
     fill="none"
     stroke="black"
     stroke-width="0.0070000002"
     stroke-miterlimit="0"
     transform="matrix(960 0 0 960 1651.2 1132.8)"
     d="M-0.12 0L0.12 0M0.0904887 -0.0298845L0.12 0L0.0904887 0.0298845"
     id="path44" />
  <path
     fill="none"
     stroke="#000000"
     stroke-width="6.72"
     stroke-miterlimit="0"
     d="m 152.79743,435.9632 h 230.4 m -28.3308,-28.68912 28.3308,28.68912 -28.3308,28.68912"
     id="path37-0" />
  <path
     fill="none"
     stroke="#000000"
     stroke-width="6.72"
     stroke-miterlimit="0"
     d="m 152.79743,1127.1632 h 230.4 m -28.3308,-28.6891 28.3308,28.6891 -28.3308,28.6891"
     id="path44-6" />
  <text
     transform="matrix(960 0 0 960 1651.2 1132.8)"
     font-size="0.050666668"
     font-family="Arial"
     x="-0.040832683, -0.01549935, 0.012679037, 0.026755862, "
     y="-0.020736992, "
     id="text45">
			sett
	</text>
  <path
     fill="none"
     stroke="black"
     stroke-width="0.0070000002"
     stroke-miterlimit="0"
     transform="matrix(5.72205e-05 960 -960 5.72205e-05 1478.4 1305.6)"
     d="M-0.12 0L0.12 0M0.0904887 -0.0298845L0.12 0L0.0904887 0.0298845"
     id="path45" />
  <text
     transform="matrix(5.72205e-05 960 -960 5.72205e-05 1478.4 1305.6)"
     font-size="0.050666668"
     font-family="Arial"
     x="-0.040832683, -0.01549935, 0.012679037, 0.026755862, "
     y="-0.020736992, "
     id="text46">
			sätt
	</text>
  <path
     fill="none"
     stroke="black"
     stroke-width="0.0070000002"
     stroke-miterlimit="0"
     transform="matrix(5.72205e-05 -960 960 5.72205e-05 1478.4 960)"
     d="M-0.12 0L0.12 0M0.0904887 -0.0298845L0.12 0L0.0904887 0.0298845"
     id="path46" />
  <text
     transform="matrix(5.72205e-05 -960 960 5.72205e-05 1478.4 960)"
     font-size="0.050666668"
     font-family="Arial"
     x="-0.033794273, -0.0084609389, 0.019717447, "
     y="-0.020736992, "
     id="text47">
			set
	</text>
  <ellipse
     fill="#020202"
     transform="matrix(960 0 0 960 1478.4 1132.8)"
     cx="0"
     cy="0"
     rx="0.056000002"
     ry="0.056000002"
     id="ellipse47" />
  <text
     fill="white"
     transform="matrix(960 0 0 960 1478.4 1132.8)"
     font-size="0.06666667"
     font-family="Hasklug Nerd Font Mono"
     x="-0.040000003, 0, "
     y="0.023699999, "
     id="text48">
			D3
	</text>
  <path
     fill="none"
     stroke="black"
     stroke-width="0.0070000002"
     stroke-miterlimit="0"
     transform="matrix(-960 -8.39259e-05 8.39259e-05 -960 1305.6 1478.4)"
     d="M-0.12 0L0.12 0M0.0904887 -0.0298845L0.12 0L0.0904887 0.0298845"
     id="path48" />
  <text
     transform="matrix(-960 -8.39259e-05 8.39259e-05 -960 1305.6 1478.4)"
     font-size="0.050666668"
     font-family="Arial"
     x="-0.081690103, -0.070433594, -0.042255208, -0.014076822, 0.014101565, 0.028178386, 0.056356773, "
     y="-0.020736992, "
     id="text49">
			lägg av
	</text>
  <ellipse
     fill="#020202"
     transform="matrix(960 0 0 960 1478.4 1478.4)"
     cx="0"
     cy="0"
     rx="0.056000002"
     ry="0.056000002"
     id="ellipse49" />
  <text
     fill="white"
     transform="matrix(960 0 0 960 1478.4 1478.4)"
     font-size="0.06666667"
     font-family="Hasklug Nerd Font Mono"
     x="-0.040000003, 0, "
     y="0.023699999, "
     id="text50"
     inkscape:export-filename="text50.png"
     inkscape:export-xdpi="118.69572"
     inkscape:export-ydpi="118.69572">
			D4
	</text>
</svg>
